<svg xmlns="http://www.w3.org/2000/svg" xmlns:xlink="http://www.w3.org/1999/xlink" xmlns:serif="http://www.serif.com/" viewBox="0 0 123 153.75" version="1.1" xml:space="preserve" style="" x="0px" y="0px" fill-rule="evenodd" clip-rule="evenodd" stroke-linejoin="round" stroke-miterlimit="2"><rect x="0" y="0" width="122.88" height="122.88" style="" fill="none"/><path d="M51.661,36.16l0.109,0.033c0.033,0.022 0.037,0.033 0.044,0.045l0.125,0.123l0.312,0.317c0.035,0.06 0.032,0.115 0.032,0.115l0.112,0.129l0.097,0.045c0.117,0.109 -0.025,0.206 -0.025,0.206c0,0 0.158,0.048 0.179,0.149l0.012,0.145c0,0 -0.006,0.049 0.186,0.029c0,0 0.262,0.136 0.097,0.222c-0.16,0.083 -0.083,0.176 -0.083,0.176l-0.017,0.185l0.149,0.174c0.024,0.056 0.022,0.112 0.022,0.112l0.231,0.167l0.067,0.083c0.065,0.096 0.038,0.112 0.182,0.244l0.095,0.214l0.158,0.098c0.015,0.015 0.015,0.015 0.027,0.033l0.049,0.092c0.008,0.021 0.008,0.021 0.011,0.043l-0.001,0.198l0.173,-0.049c0.02,0 0.02,0 0.039,0.003l0.229,0.068c0.016,0.01 0.016,0.01 0.029,0.023l0.143,0.182c0.027,0.048 0.037,0.104 0.037,0.104l0.115,0.184l0.127,0.226l-0.01,0.228l-0.017,0.199c-0.029,0.219 -0.238,0.13 -0.238,0.13c-0.059,0.05 -0.108,0.032 -0.108,0.032c0,0 0.097,0.105 0.095,0.183l0.003,0.088c0,0 0.121,0.028 0.139,0.121l0.007,0.095c-0.001,0.021 -0.001,0.021 -0.006,0.042l-0.055,0.147l0.035,0.174l0.088,-0.072c0.05,-0.004 0.046,-0.095 0.139,0.121c0,0 0.026,0.02 0.119,0.075c0,0 0.106,-0.052 0.169,0.01l0.064,0.076c0.035,0.051 0.038,0.1 0.038,0.1l0.119,0.134c0.039,0.088 -0.025,0.114 0.02,0.132c0.106,0.044 0.104,0.159 0.104,0.159c0,0 0.129,-0.123 0.192,-0.042c0.077,0.099 0.167,0.124 0.107,0.25l0.09,0.103c0,0 0.071,0.014 0.2,-0.065c0,0 -0.05,-0.136 0.001,-0.214c0,0 0.099,-0.086 0.069,-0.133c-0.016,-0.025 -0.015,-0.045 -0.015,-0.045c0,0 -0.155,-0.008 -0.212,-0.053c0,0 -0.106,-0.071 -0.098,-0.161l0.07,-0.191l0.233,-0.178l0.089,-0.08c0.126,-0.055 0.146,0.054 0.161,0.084l0.289,0.104c0.294,-0.093 0.227,-0.126 0.275,-0.131l0.22,0.005c0.272,0.105 0.038,0.302 0.038,0.302c0,0 0.003,0.077 -0.057,0.124l-0.088,0.056c-0.104,0.056 -0.093,0.052 -0.093,0.052l-0.002,0.237l-0.171,0.207l0.033,0.155c0.03,0.055 0.064,0.113 0.161,0.194l0.187,0.074l0.129,0.034l0.177,0.162c0.033,0.042 0.062,0.11 0.062,0.11l0.077,0.119l0.021,0.1c0.004,0.041 -0.003,0.052 -0.008,0.065c0,0 -0.114,0.244 0.033,0.522l0.115,0.174l0.122,0.16c0.065,0.059 0.253,0.121 0.253,0.121c0.059,0.032 0.094,0.084 0.094,0.084l0.236,0.102c0.015,0.005 0.015,0.005 0.029,0.013l0.156,0.123c0.013,0 0.013,0 0.026,0.001c0,0 0.158,-0.015 0.189,0.098l0.016,0.106c0.002,0.019 0.002,0.019 -0.001,0.039c0,0 -0.008,0.095 -0.049,0.147l-0.235,0.218l-0.088,0.047c-0.238,0.154 -0.093,0.178 -0.245,0.137l-0.116,0.098c-0.192,0.164 -0.241,0.281 -0.241,0.281c0,0 -0.026,0.062 -0.084,0.093l-0.218,0.077c-0.013,0.003 -0.012,0.003 -0.025,0.004l-0.109,0.001c-0.042,-0.004 -0.051,-0.014 -0.063,-0.021c0,0 -0.138,-0.064 -0.114,-0.173l0.054,-0.166c0,0 -0.021,-0.15 -0.065,-0.116c-0.093,0.071 -0.202,0.038 -0.202,0.038c-0.172,-0.009 -0.173,0.015 -0.173,0.015l-0.232,0.005l-0.277,0.097c-0.054,0.014 -0.11,0.007 -0.11,0.007l-0.262,0.066l-0.171,0.154l-0.237,0.165c-0.131,0.056 -0.109,-0.025 -0.344,0.024l-0.164,-0.028l-0.102,-0.038c-0.016,-0.009 -0.016,-0.009 -0.031,-0.02l-0.076,-0.068c-0.024,-0.026 -0.025,-0.036 -0.03,-0.047l-0.067,-0.262c-0.159,-0.086 -0.119,-0.019 -0.171,-0.059l-0.164,-0.082l-0.202,-0.171l-0.178,-0.014l-0.098,-0.034c-0.017,-0.008 -0.017,-0.008 -0.033,-0.019c0,0 -0.104,-0.067 -0.116,-0.139c0,0 0.007,-0.214 0.007,-0.214c-0.022,-0.005 -0.022,-0.005 -0.043,-0.016l-0.09,-0.058c-0.088,-0.069 -0.101,-0.094 -0.101,-0.094l-0.185,0.041c-0.135,-0.012 -0.147,-0.146 -0.147,-0.146l-0.04,-0.105c0,0 -0.186,0.156 -0.186,0.156c0,0 0.152,0.044 0.138,0.157c0,0 -0.002,0.163 -0.119,0.178l-0.11,0.002c-0.109,0.001 -0.109,0.001 -0.219,0l-0.217,-0.001l-0.222,0.008l-0.11,0.001c-0.172,-0.013 -0.161,-0.057 -0.162,-0.131l-0.012,-0.15l-0.105,-0.016c-0.037,-0.01 -0.044,-0.019 -0.054,-0.026l-0.132,-0.14c-0.012,0.018 -0.012,0.018 -0.028,0.032l-0.175,0.141c-0.061,0.027 -0.124,0.023 -0.124,0.023l-0.197,0.049l-0.202,0.044c-0.071,0.014 -0.416,0.105 -0.416,0.105l-0.1,0.007c-0.225,0.053 -0.225,0.051 -0.225,0.051c0,0 -0.09,-0.015 -0.189,0.008c-0.026,0.006 -0.222,0.064 -0.222,0.064l-0.206,0.023l-0.188,0.019c-0.102,0.014 -0.102,0.015 -0.204,0.019l-0.229,0.062l-0.216,-0.003l-0.109,-0.001c-0.023,-0.004 -0.023,-0.004 -0.045,-0.012l-0.192,-0.121c-0.015,-0.013 -0.015,-0.013 -0.026,-0.029l-0.058,-0.098c-0.149,-0.294 -0.077,-0.068 -0.147,-0.401c0,0 -0.05,-0.033 -0.064,-0.11l-0.007,-0.101c-0.042,-0.181 -0.078,-0.177 -0.078,-0.177l-0.034,-0.103c-0.013,-0.052 -0.008,-0.111 -0.008,-0.111l-0.048,-0.206c-0.055,-0.114 -0.009,-0.112 -0.192,-0.279l-0.165,-0.243c-0.064,-0.07 -0.065,-0.069 -0.138,-0.13c0,0 -0.148,-0.127 -0.325,-0.152l-0.128,-0.076c-0.012,-0.01 -0.012,-0.01 -0.023,-0.021c0,0 -0.09,-0.087 -0.087,-0.161l0.019,-0.254l-0.031,-0.189l-0.158,-0.221c0,0 -0.184,-0.067 -0.089,-0.186l-0.235,-0.158c-0.071,-0.091 -0.073,-0.112 -0.073,-0.112c0,0 -0.179,0.069 -0.186,-0.112l-0.114,-0.172l-0.04,-0.111c0,0 -0.073,0.014 -0.121,-0.029l-0.069,-0.076c-0.011,-0.015 -0.011,-0.015 -0.019,-0.032c0,0 -0.045,-0.074 -0.039,-0.142l0.018,-0.1c0.006,-0.33 -0.035,-0.034 0.023,-0.429l0.009,-0.202l-0.006,-0.262l-0.168,-0.192c-0.091,-0.097 -0.124,-0.169 -0.124,-0.169l-0.138,-0.118l-0.201,-0.11l-0.149,-0.121l-0.169,-0.096l-0.202,-0.104c-0.149,-0.146 0.132,-0.209 0.132,-0.209c0.021,-0.005 0.021,-0.005 0.042,-0.005l0.093,0.008c0.223,-0.036 0.207,-0.043 0.207,-0.043l0.097,0c0.231,-0.044 0.214,-0.039 0.214,-0.039l0.205,-0.019c0.067,0.006 0.121,0.039 0.121,0.039c0.084,0.006 0.388,0.003 0.388,0.003l0.213,-0.052l0.224,-0.018l0.225,0.003l0.172,0.044l0.209,-0.021c0.033,0.007 0.08,0.035 0.088,0.039l0.29,-0.028l0.184,-0.034l0.262,-0.028l0.078,0.027c0.22,-0.02 0.148,-0.043 0.161,-0.085c0.032,-0.106 0.204,-0.086 0.204,-0.086c0,0 0.02,-0.09 0.081,-0.108c0,0 -0.097,-0.106 0.013,-0.177l0.227,-0.152l0.165,-0.117l0.15,-0.134l0.154,-0.105c0.047,-0.061 0.093,-0.209 0.093,-0.209c0.056,-0.098 0.062,-0.037 0.099,-0.132l0.068,-0.258c0.019,-0.033 0.03,-0.038 0.04,-0.046c0,0 0.082,-0.012 0.171,-0.17l0.181,-0.152l0.074,-0.048c0.133,-0.16 0.001,-0.139 0.135,-0.188l0.203,-0.158l0.082,-0.039c0.166,-0.129 0.165,-0.132 0.165,-0.132l0.099,-0.056c0.062,-0.013 0.03,-0.016 0.086,-0.038l0.153,-0.014c0,0 -0.024,-0.257 0.186,-0.112l0.132,-0.047c0,0 0.039,-0.205 0.177,-0.112l0.092,0.064c0,0 0.153,-0.021 0.197,-0.013Zm-5.281,5.536c0,0 0.109,0.037 0.148,0.113l0.14,0.157c0,0 0.103,0.016 0.141,0.077l0.065,0.175l0.058,0.09c0.151,0.233 0.124,0.12 0.143,0.21l0.031,0.206l0.016,0.1c0.002,0.018 0.002,0.017 -0.001,0.036l-0.026,0.14l0.086,0.077l0.2,0.056c0.063,0.028 0.127,0.068 0.127,0.068l0.17,0.15l0.114,0.164c0,0 0.092,0.02 0.114,0.095l0.125,0.202l0.118,0.237l0.047,0.205l0.004,0.09c0.063,0.197 0.09,0.191 0.09,0.191l0.025,0.114l0.211,-0.009c0.194,0.053 -0.012,0.235 -0.012,0.235c-0.029,0.024 -0.113,0.049 -0.113,0.049c0,0 0.078,0.212 0.154,0.34l0.128,0.081c0.065,0.001 0.13,0.002 0.194,0.004c0.092,0 0.092,0.001 0.184,-0.008l0.221,-0.057c0.213,-0.028 0.212,-0.034 0.212,-0.034l0.188,-0.025c0.054,-0.01 0.116,0 0.116,0l0.195,-0.06l0.223,-0.011l0.206,-0.05l0.291,-0.067c0.131,-0.027 0.406,-0.085 0.406,-0.085l0.273,-0.06l0.126,-0.128l-0.048,-0.173c-0.038,-0.074 -0.04,-0.073 -0.093,-0.136l-0.108,-0.101l-0.244,-0.095c0,0 -0.073,0.036 -0.135,0.006l-0.089,-0.054c-0.099,-0.073 -0.065,-0.009 -0.145,-0.028l-0.191,-0.048c-0.087,-0.046 -0.085,-0.15 -0.085,-0.15c-0.033,-0.175 -0.001,-0.114 0.039,-0.24c0,0 0.011,-0.078 0.078,-0.124c0,0 0.162,-0.057 0.23,-0.019l0.152,0.076c0.031,0.023 0.034,0.035 0.04,0.046l0.117,0.216c0,0 0.119,-0.053 0.192,-0.008c0,0 0.116,0.071 0.083,0.165c0,0 0.084,-0.022 0.131,0.023c0.016,0.015 0.042,0.058 0.048,0.066l-0.044,-0.093c-0.055,-0.143 -0.053,-0.112 -0.053,-0.112l-0.097,-0.029c-0.034,-0.014 -0.039,-0.023 -0.048,-0.031l-0.071,-0.083c-0.008,-0.012 -0.008,-0.012 -0.015,-0.025l-0.103,-0.183c-0.006,-0.017 -0.006,-0.017 -0.009,-0.035l0.036,-0.235c0.155,-0.275 0.325,0.08 0.325,0.08c0.149,0.171 0.123,0.094 0.155,0.147c0,0 0.044,0.068 0.044,0.068l-0.049,-0.125c-0.093,-0.164 0.117,-0.188 0.117,-0.188c0.22,-0.095 0.267,0.035 0.267,0.035c0.205,0.06 0.204,0.061 0.204,0.061l0.162,0.11c0.321,-0.058 0.156,0.264 0.156,0.264c-0.015,0.028 -0.023,0.032 -0.03,0.04c0,0 -0.145,0.106 -0.11,0.155c0.156,0.216 -0.041,0.242 -0.041,0.242c-0.072,0.059 -0.272,-0.038 -0.272,-0.038c-0.13,0.012 -0.134,0.043 -0.134,0.043l-0.091,0.026l0.033,0.159c-0.005,0.037 -0.013,0.045 -0.019,0.055l-0.045,0.097l0.103,0.149c0.041,0.092 0.072,0.135 0.072,0.135l0.176,0.005c0.269,0.073 0.09,0.285 0.09,0.285l0.168,-0.001l0.224,-0.006c0,0 0.095,0.016 0.074,-0.028c-0.043,-0.091 0.066,-0.18 0.066,-0.18c0.01,-0.012 0.01,-0.012 0.022,-0.022l0.184,-0.125l0.168,-0.119c0,0 0.056,-0.092 0.119,-0.109l0.101,-0.017c0.194,-0.011 0.088,0.21 0.088,0.21l0.015,0.133l0.141,-0.031c0.019,0.001 0.019,0.001 0.037,0.006c0,0 0.085,0.009 0.136,0.065l0.085,0.091c0,0 0.149,-0.043 0.178,0.045c0.077,0.238 -0.013,0.323 -0.013,0.323l0.095,0.052l0.213,0.024c0.042,0.016 0.111,0.097 0.111,0.097c0.048,0.061 0.091,0.076 0.091,0.076l0.109,0.027c0.052,0.028 0.088,0.072 0.088,0.072l0.189,0.069c0.078,0.053 0.078,0.159 0.078,0.159l0.043,0.177c0.122,0.11 0.286,0.065 0.286,0.065l0.132,-0.02c0.107,0.017 0.106,0.007 0.106,0.007l0.174,-0.13c0.203,-0.152 0.117,-0.13 0.178,-0.159l0.102,-0.038c0.058,-0.017 0.117,-0.007 0.117,-0.007l0.297,-0.092l0.255,-0.067c0.136,-0.021 0.143,0.02 0.263,-0.01l0.193,0.004c0,0 0.067,-0.101 0.156,-0.072l0.093,0.042c0.016,0.009 0.016,0.009 0.029,0.02l0.111,0.254c0.008,0.04 0.003,0.052 -0.001,0.065l-0.043,0.127c0,0 0.153,-0.032 0.145,-0.091c-0.034,-0.253 0.214,-0.185 0.214,-0.185c0.123,-0.106 0.229,-0.182 0.229,-0.182c0,0 0.058,-0.154 0.181,-0.106l0.21,-0.141l0.183,-0.167l-0.005,-0.074c0,0 -0.138,0.047 -0.19,-0.053l-0.062,-0.089l-0.191,-0.083l-0.17,-0.113l-0.201,-0.072c-0.012,-0.007 -0.012,-0.007 -0.023,-0.016l-0.17,-0.176l-0.135,-0.186c-0.098,-0.188 -0.107,-0.206 -0.107,-0.206l-0.064,-0.245l0.028,-0.229c0.036,-0.127 0.032,-0.134 0.032,-0.134l-0.106,-0.168c-0.173,-0.194 -0.18,-0.116 -0.225,-0.135l-0.223,-0.093l-0.18,-0.183l-0.052,-0.096c-0.006,-0.015 -0.006,-0.014 -0.01,-0.029l-0.049,-0.23c0.006,-0.053 0.092,-0.148 0.092,-0.148c0.032,-0.033 0.066,-0.04 0.079,-0.045c0,0 0.051,-0.003 0.01,-0.221l0.047,-0.154c0.049,-0.086 0.154,-0.082 0.154,-0.082c0,0 0.03,-0.064 0.067,-0.111l-0.235,0.102l-0.118,0.035c-0.021,0 -0.021,0 -0.042,-0.005l-0.18,-0.068l-0.206,-0.077l-0.181,0.119l-0.034,0.072l0.264,0.059c0.271,0.139 0.195,0.206 0.143,0.292c0,0 -0.163,0.102 -0.142,0.156c0.033,0.086 -0.019,0.159 -0.019,0.159c0,0 -0.01,0.065 -0.067,0.109l-0.088,0.054c-0.014,0.007 -0.014,0.007 -0.029,0.012l-0.227,0.051c-0.023,-0.003 -0.023,-0.003 -0.045,-0.011l-0.166,-0.148l-0.096,-0.166c0,0 -0.117,0.044 -0.185,-0.016l-0.13,-0.158c-0.2,-0.055 -0.154,-0.197 -0.092,-0.267c0,0 -0.062,-0.022 -0.085,-0.079l-0.03,-0.092c0,0 -0.064,0.032 -0.122,0.005l-0.211,-0.094c-0.007,0.012 -0.016,0.022 -0.027,0.029c-0.045,0.032 -0.165,0.014 -0.214,-0.098l-0.032,-0.096c-0.014,-0.059 -0.002,-0.116 -0.002,-0.116c0,0 -0.058,-0.072 -0.036,-0.152l0.058,-0.179c0,0 -0.131,0.012 -0.15,-0.088l-0.007,-0.101c0.006,-0.151 -0.03,-0.083 -0.056,-0.152c0,0 -0.046,-0.112 -0.023,-0.174c0,0 -0.016,-0.137 0.065,-0.191l0.183,-0.107c0.038,-0.01 0.073,-0.004 0.105,0.021c0,0 0.029,-0.02 0.019,-0.229l-0.112,-0.177l-0.101,-0.152c-0.068,-0.111 -0.038,-0.13 -0.141,-0.245l-0.214,-0.041l-0.084,0.048c-0.017,0.004 -0.017,0.004 -0.034,0.006c0,0 -0.168,0.058 -0.199,-0.089l-0.007,-0.292l-0.196,-0.161c-0.015,-0.017 -0.015,-0.017 -0.025,-0.036l-0.072,-0.18l-0.164,-0.175c0,0 -0.005,-0.104 -0.244,-0.238c0,0 -0.099,-0.087 -0.115,-0.162l-0.04,-0.136l-0.147,-0.166c-0.016,-0.038 -0.013,-0.051 -0.012,-0.065l0.045,-0.2l0.001,-0.108c0.024,-0.111 -0.013,-0.05 -0.059,-0.073c0,0 -0.129,-0.044 -0.144,-0.137l-0.008,-0.128l-0.156,-0.118c-0.057,-0.071 -0.032,-0.175 -0.032,-0.175c0.004,-0.039 -0.008,-0.042 -0.008,-0.042l-0.141,-0.161c-0.021,-0.028 -0.037,-0.115 -0.037,-0.115l-0.358,-0.329c-0.09,-0.063 -0.06,-0.123 -0.252,-0.088c0,0 -0.101,-0.026 -0.113,-0.032c0,0 -0.054,0.075 -0.118,0.099l-0.19,0.054c0,0 -0.085,0.109 -0.218,0.083c0,0 -0.067,0.128 -0.163,0.065l-0.198,0.153l-0.077,0.036c-0.142,0.141 -0.084,0.118 -0.131,0.143c-0.06,0.032 -0.077,0.058 -0.104,0.098l-0.226,0.219c-0.149,0.093 -0.1,0.093 -0.126,0.12l-0.08,0.074c-0.067,0.051 -0.065,0.076 -0.065,0.076l-0.012,0.104c-0.041,0.103 0.003,0.059 0.009,0.127c0.008,0.093 -0.159,0.131 -0.159,0.131l-0.062,0.152l-0.167,0.159l-0.142,0.11l-0.175,0.128l-0.211,0.213l0.005,0.109c-0.03,0.116 -0.094,0.086 -0.122,0.091c0,0 -0.015,0.059 -0.061,0.087l-0.089,0.044c-0.074,0.026 -0.03,0.052 -0.036,0.083c-0.01,0.053 -0.107,0.234 -0.215,0.061l-0.154,0.023c-0.105,-0.002 -0.125,-0.04 -0.195,-0.028c-0.089,0.014 -0.303,0.061 -0.303,0.061l-0.099,0.02c-0.064,0.007 -0.114,-0.015 -0.114,-0.015c0,0 -0.078,0.053 -0.154,0.022c0,0 -0.048,-0.041 -0.234,-0.015l-0.134,-0.027c-0.16,-0.041 -0.182,-0.012 -0.182,-0.012l-0.195,0.003l-0.19,0.022l-0.117,0.035c-0.263,0.012 -0.222,0.011 -0.222,0.011l-0.248,-0.021l-0.264,-0.012l-0.209,0.039l-0.197,0.027l0.194,0.123l0.074,0.068c0.156,0.126 0.184,0.096 0.184,0.096c0.128,0.11 0.237,0.25 0.237,0.25c0.103,0.121 0.229,0.236 0.229,0.236l0.041,0.098c0.006,0.019 0.006,0.019 0.008,0.038l0.013,0.197l-0.007,0.203l-0.026,0.219l-0.003,0.2l-0.018,0.205c0.063,0.167 0.09,-0.002 0.182,0.113l0.092,0.203c0.138,0.26 0.066,0.123 0.168,0.152Zm5.416,1.821l0.015,0.143c-0.007,0.313 -0.193,0.23 -0.193,0.23l0.014,0.122l0.064,0.088c0.017,-0.01 0.017,-0.01 0.037,-0.017l0.283,-0.083c0,0 0.178,-0.247 0.178,-0.247c-0.093,-0.075 -0.039,-0.111 -0.223,-0.16c0,0 -0.158,-0.08 -0.175,-0.076Zm-0.99,0.451c0,0 0.009,-0.066 -0.053,0.001c0,0 0.044,-0.004 0.053,-0.001Zm0.486,-0.352l0.089,0.152c0,0 0.054,0.002 0.054,0.002c0,0 -0.242,-0.295 -0.143,-0.154Z"/><path d="M4.708,29.602c0.157,0.036 0.18,0.143 0.18,0.143c0,0 0.043,-0.005 0.241,-0.076l0.172,0.066c0.168,0.131 0.092,0.014 0.178,0.102l0.124,0.183l0.085,0.19c0.021,0.097 -0.075,0.168 -0.075,0.168c-0.133,0.158 -0.249,0.068 -0.249,0.068l-0.098,0.136c-0.094,0.217 0.044,0.16 -0.105,0.235c0,0 0.086,0.024 0.092,0.125c0.002,0.294 0.004,0.666 0.004,0.666c0,0 0.011,0.301 0.023,0.551c0,0 0.002,0.068 -0.065,0.099l-0.207,0.034c-0.187,0.072 -0.103,0.101 -0.207,0.098l-0.342,0.132c0,0 -0.077,0.121 -0.17,0.099l-0.204,0.038c-0.164,0.031 -0.229,0.105 -0.429,0.107l-0.09,-0.005c-0.132,0.021 -0.154,0.057 -0.154,0.057l-0.225,0.147l-0.051,0.072c-0.127,0.191 -0.027,0.138 -0.096,0.2c0,0 -0.082,0.02 -0.121,0.2l-0.106,0.116c-0.058,0.081 -0.057,0.081 -0.106,0.167l-0.101,0.186l-0.113,0.246l-0.15,0.268l-0.028,0.102c0,0 0.097,0.078 0.036,0.161c0,0 -0.057,0.096 -0.126,0.114c0,0 -0.132,0.058 -0.188,-0.034c-0.145,0.028 -0.256,-0.086 -0.256,-0.086l-0.121,-0.105l-0.182,-0.026c-0.14,-0.048 -0.066,-0.174 -0.066,-0.174c-0.103,-0.196 -0.148,-0.001 -0.206,-0.18l-0.02,-0.135c0,0 -0.074,-0.012 -0.083,-0.108l0.007,-0.226l0.031,-0.253l-0.033,-0.151c-0.014,-0.116 0.016,-0.139 0.064,-0.187l0.074,-0.065c0.063,-0.074 0.062,-0.075 0.109,-0.161c0,0 0.054,-0.044 0.042,-0.226l0.017,-0.137c0.022,-0.059 0.073,-0.086 0.073,-0.086c0,0 -0.018,-0.147 0.105,-0.23l0.152,-0.08l0.065,-0.065c0.078,-0.071 0.078,-0.071 0.159,-0.137c0,0 0.199,-0.184 0.216,-0.207c0.11,-0.148 0.178,-0.151 0.178,-0.151c0,0 0.036,-0.134 0.119,-0.166l0.168,-0.049l0.254,-0.1c0.043,-0.098 0.067,-0.193 0.147,-0.207l0.102,-0.011c0.003,-0.001 0.178,-0.044 0.184,-0.047c0.011,-0.004 0.182,-0.091 0.185,-0.092l0.097,-0.045c0.077,-0.03 0.126,-0.018 0.171,-0.059c0.036,-0.033 0.118,-0.215 0.118,-0.215c0.004,-0.013 0.004,-0.013 0.009,-0.026l0.1,-0.172c0.038,-0.223 -0.024,-0.13 0.033,-0.213l0.069,-0.098c0,0 -0.055,-0.058 0.01,-0.142l0.14,-0.139c0.135,-0.104 0.096,0.029 0.238,-0.061l0.138,-0.132c0.018,-0.008 0.021,-0.015 0.064,-0.011Zm-2.978,4.77c0.028,0.011 0.03,0.015 0.043,0.028l0.205,0.169c0,0 0.07,-0.064 0.132,-0.04l0.052,-0.198c0.006,-0.011 0.006,-0.011 0.013,-0.022l0.115,-0.137l0.048,-0.17l0.032,-0.106c0.05,-0.102 0.111,-0.194 0.111,-0.194l0.107,-0.177c0.084,-0.132 0.143,-0.164 0.143,-0.164l0.085,-0.196c0.12,-0.17 0.071,-0.107 0.098,-0.155l0.127,-0.183c0.035,-0.036 0.099,-0.075 0.099,-0.075l0.189,-0.116l0.109,-0.057c0.24,-0.051 0.217,0.073 0.378,-0.099l0.161,-0.007c0.108,-0.016 0.229,-0.071 0.229,-0.071c0.063,-0.012 -0.034,0.089 0.208,-0.097l0.164,-0.032c0,0 0.041,-0.093 0.14,-0.091l0.236,-0.084c0.053,-0.016 0.123,-0.005 0.123,-0.005c-0.011,-0.226 -0.02,-0.482 -0.02,-0.482c-0.001,-0.263 -0.003,-0.622 -0.003,-0.622c-0.123,-0.106 -0.106,-0.049 -0.139,-0.088c-0.067,-0.08 0.059,-0.203 0.059,-0.203c0.026,-0.03 0.041,-0.031 0.061,-0.041c0,0 0.029,-0.153 0.08,-0.207l0.081,-0.13c0.024,-0.041 0.038,-0.043 0.062,-0.052l0.218,-0.071l-0.123,-0.2c0,0 -0.069,0.016 -0.124,-0.042l-0.08,-0.081l-0.231,0.069c-0.31,0.034 -0.231,-0.111 -0.231,-0.111l-0.216,0.166c-0.129,0.044 -0.073,-0.058 -0.159,0.04l-0.038,0.182c-0.081,0.137 -0.026,0.004 -0.064,0.233c-0.028,0.121 -0.093,0.111 -0.125,0.278l-0.081,0.13l-0.078,0.098c-0.01,0.009 -0.009,0.008 -0.02,0.016l-0.216,0.082c-0.117,0.054 -0.284,0.138 -0.284,0.138c-0.139,0.044 -0.278,0.063 -0.278,0.063c-0.069,0.154 -0.189,0.225 -0.189,0.225c-0.012,0.005 -0.012,0.005 -0.024,0.009l-0.196,0.067c-0.241,0.081 -0.076,0.03 -0.16,0.118l-0.175,0.112l-0.124,0.156c-0.115,0.11 -0.313,0.282 -0.313,0.282l-0.082,0.081c-0.092,0.065 -0.149,0.079 -0.149,0.079l-0.035,0.14c-0.026,0.091 -0.09,0.06 -0.077,0.243c0,0 0.008,0.104 -0.024,0.16l-0.11,0.181c-0.144,0.188 -0.158,0.19 -0.158,0.19l0.04,0.24c-0.004,0.134 -0.055,0.182 -0.05,0.353c0,0 0.08,0.02 0.085,0.114l-0.001,0.078l0.151,0.104c0.066,0.072 0.087,0.085 0.076,0.185c0,0 0.065,-0.015 0.117,-0.003Z"/><path d="M20.22,24.758c0.063,0.042 0.131,0.014 0.181,0.04c0.05,0.026 0.08,0.077 0.037,0.144l0.233,0.055l0.137,0.059c0,0 0.125,-0.098 0.205,-0.083l0.199,0.108l0.192,0.127l0.153,0.134c0.088,0.087 0.089,0.113 0.089,0.113l0.082,0.066c0.179,0.136 0.186,0.129 0.186,0.129l0.11,0.221c0.007,0.05 -0.013,0.113 -0.013,0.113l0.056,0.208l0.079,0.18c0.028,0.196 0.021,0.119 0.021,0.119c0,0 0.117,-0.099 0.192,0.007l0.069,0.208c0.001,0.014 0.001,0.014 0,0.028l-0.027,0.167c0,0 0.048,0.058 0.045,0.121l-0.062,0.213c-0.029,0.2 0.04,0.071 -0.001,0.208l-0.038,0.097c-0.009,0.017 -0.009,0.017 -0.02,0.032l-0.069,0.074c-0.133,0.126 -0.129,0.125 -0.129,0.125c0,0 0.064,0.088 0.011,0.156l-0.134,0.138l-0.104,0.142l-0.018,0.192l-0.022,0.119c-0.006,0.013 -0.006,0.013 -0.013,0.025l-0.061,0.089c-0.012,0.013 -0.011,0.013 -0.025,0.025l-0.268,0.166c0,0 0.038,0.061 0.02,0.117l-0.059,0.203c0,0 -0.049,0.067 -0.048,0.157c0,0.004 0.02,0.179 0.021,0.183c0.022,0.099 0.05,0.178 0.05,0.178l0.055,0.078c0.006,0.018 0.006,0.017 0.009,0.036l0.023,0.144c0.124,0.222 -0.029,0.255 -0.029,0.255c0.005,0.06 0.054,0.258 0.054,0.258l0.012,0.213c0,0 0.01,0.113 -0.043,0.171c0,0 -0.075,0.1 -0.158,0.097l-0.139,-0.042l-0.064,0.043l0.01,0.217c0.117,0.128 -0.065,0.2 -0.065,0.2c-0.146,0.098 -0.105,0.101 -0.176,0.117l-0.161,0.025l-0.188,0.155c-0.187,0.119 -0.201,0.115 -0.201,0.115l-0.102,0.153c0.084,0.137 -0.066,0.18 -0.066,0.18c-0.068,0.048 -0.213,0.031 -0.213,0.031l-0.086,0.13c-0.062,0.136 -0.118,0.058 -0.143,0.095c-0.043,0.068 -0.132,0.058 -0.132,0.058c0,0 -0.069,0.156 -0.161,0.171l-0.09,0.008c-0.188,0.098 -0.081,0.105 -0.17,0.13l-0.126,0.037c0,0 -0.052,0.126 -0.147,0.11l-0.097,-0.025c-0.061,-0.022 -0.104,-0.068 -0.104,-0.068l-0.255,-0.069l-0.193,-0.066l-0.082,-0.035c-0.094,-0.027 -0.094,-0.027 -0.189,-0.049l-0.098,-0.028c-0.185,-0.029 -0.188,-0.013 -0.188,-0.013l-0.112,-0.026c-0.093,-0.051 -0.035,-0.007 -0.105,-0.02l-0.158,-0.006l-0.101,0.016c-0.238,0.081 -0.124,0.137 -0.256,0.036l-0.043,-0.04l-0.275,-0.032c0,0 -0.071,0.029 -0.136,0.013l-0.211,-0.056l-0.179,-0.078c0,0 -0.117,0.08 -0.191,-0.057l-0.29,-0.082c-0.182,-0.123 0.018,0.05 -0.119,0.121c0,0 -0.108,0.063 -0.18,0.037l-0.095,-0.046c-0.075,-0.046 -0.057,-0.09 -0.062,-0.141l-0.211,-0.082l-0.186,-0.106l-0.063,-0.058c-0.147,-0.13 -0.107,-0.044 -0.155,-0.109l-0.095,-0.198l-0.22,-0.224c-0.04,-0.073 -0.015,-0.131 -0.015,-0.131l-0.205,-0.074c-0.01,-0.008 -0.01,-0.008 -0.018,-0.016l-0.074,-0.078c-0.074,-0.098 0.092,-0.147 -0.379,-0.174l-0.219,-0.062l-0.216,-0.02l-0.115,-0.033c-0.124,-0.068 -0.113,-0.107 -0.265,-0.138l-0.203,-0.062l-0.1,-0.029c-0.104,-0.027 -0.104,-0.027 -0.209,-0.052l-0.22,-0.06l-0.199,-0.121c-0.01,-0.009 -0.01,-0.009 -0.019,-0.019l-0.118,-0.195c-0.062,-0.143 -0.155,-0.337 -0.155,-0.337l-0.182,-0.092c-0.016,-0.013 -0.016,-0.013 -0.029,-0.028l-0.092,-0.231l-0.038,-0.259l0.041,-0.204l0.038,-0.199l-0.003,-0.203c-0.057,-0.091 0.019,-0.179 0.019,-0.179c0,0 -0.008,-0.151 0.096,-0.171l0.2,-0.03c0.074,-0.072 0.074,-0.072 0.145,-0.147l0.171,-0.146c0.08,-0.072 0.165,-0.128 0.217,-0.202c0.06,-0.087 0.123,-0.269 0.123,-0.269c0.069,-0.143 0.056,-0.178 0.056,-0.178c0,0 0.068,-0.241 0.068,-0.241c-0.02,-0.046 0.05,-0.163 0.05,-0.163c0,0 -0.018,-0.115 0.056,-0.163c0,0 0.052,0.003 0.15,-0.196c0,0 0.082,-0.101 0.161,-0.116l0.228,-0.107c0.109,-0.118 0.116,-0.082 0.202,-0.106l0.195,-0.01l0.177,-0.022l0.227,-0.097c0.056,-0.026 0.081,-0.009 0.115,-0.004l0.172,-0.057c0.188,-0.149 0.091,-0.117 0.162,-0.149l0.202,-0.058c0.177,-0.124 0.042,-0.053 0.287,-0.266l0.107,-0.059c0.046,-0.02 0.103,-0.025 0.103,-0.025l0.187,-0.088c0.201,-0.137 0.189,-0.128 0.189,-0.128l0.155,-0.103l0.087,-0.055c0.192,-0.153 0.16,-0.137 0.16,-0.137l0.091,-0.064c0.013,-0.006 0.013,-0.005 0.027,-0.009l0.108,-0.021c0.02,-0.002 0.02,-0.002 0.04,0l0.222,0.047c0,0 0.067,-0.082 0.145,-0.076l0.214,0.017c0,0 0.105,0.015 0.151,0.081l0.083,0.144c0,0 0.117,-0.077 0.199,-0.048l0.076,0.034c0.218,0.028 0.166,0.003 0.207,0.019c0.081,0.032 0.081,0.142 0.081,0.142l0.07,0.101l0.127,0.006l0.056,-0.081l-0.027,-0.188c0.004,-0.12 0.062,-0.131 0.104,-0.165l0.179,-0.134c0.019,-0.008 0.019,-0.008 0.039,-0.012l0.228,-0.014l0.206,0.087l0.147,0.047l0.22,-0.031c0.106,0.013 0.106,0.012 0.211,0.033l0.095,0.008c0.017,0.003 0.017,0.003 0.033,0.009c0,0 0.159,0.091 0.159,0.091c0.014,-0.033 0.024,-0.039 0.033,-0.048c0,0 0.076,-0.099 0.168,-0.071c0,0 0.055,0.047 0.221,0l0.048,-0.172c0.04,-0.109 0.054,-0.071 0.085,-0.075c0.147,-0.021 0.176,0.147 0.176,0.147l0.074,0.055c0.059,0.08 0.019,-0.008 0.12,0.033Zm-4.147,7.286c0.11,0.038 0.146,0.044 0.187,0.062l0.089,0.048c0.188,0.069 0.204,0.055 0.204,0.055l0.155,0.012c0.027,-0.004 0.034,-0.001 0.043,0.001l0.098,0.024c0.264,0.034 0.133,-0.083 0.283,0.057l0.232,-0.059l0.209,0c0,0 0.137,-0.106 0.201,0.044l0.236,0.024l0.2,0.052l0.19,0.066l0.27,0.076c0.224,0.046 0.212,0.074 0.212,0.074l0.073,0.053l0.151,-0.107c0.168,-0.063 0.15,-0.096 0.15,-0.096l0.092,-0.048c0.056,-0.022 0.101,-0.016 0.101,-0.016c0.189,-0.275 0.19,-0.168 0.214,-0.207c0.037,-0.057 0.09,-0.03 0.12,-0.08l0.053,-0.075c0.013,-0.015 0.013,-0.015 0.029,-0.028l0.091,-0.055c0.122,-0.06 0.105,-0.019 0.123,-0.084l0.037,-0.097c0.07,-0.144 0.025,-0.097 0.151,-0.184l0.259,-0.124c0.043,-0.041 0.097,-0.059 0.097,-0.059l0.075,-0.074c0.018,-0.01 0.018,-0.01 0.037,-0.016c0,0 0.133,-0.019 0.155,-0.062c0.042,-0.078 0.06,-0.075 0.083,-0.127l-0.186,0.028c-0.175,-0.011 -0.093,-0.192 -0.093,-0.192c0.032,-0.144 0.07,-0.115 0.153,-0.148l0.081,-0.024c0,0 0.033,-0.19 0.167,-0.117l0.078,0.051c0,0 0.068,-0.049 0.135,-0.022l0.087,0.024l-0.043,-0.341l-0.019,-0.221c0,0 -0.073,0.007 -0.115,-0.047c0,0 -0.132,-0.179 0.028,-0.219l0.098,-0.049l-0.08,-0.186l-0.058,-0.341l0.011,-0.106c0.012,-0.064 0.051,-0.117 0.051,-0.117l0.017,-0.216c-0.053,-0.272 0.196,-0.246 0.196,-0.246c0.021,-0.014 0.133,-0.076 0.189,-0.158l0.026,-0.259c-0.001,-0.097 0.091,-0.156 0.091,-0.156l0.137,-0.213c-0.002,-0.02 -0.002,-0.02 -0.001,-0.039c0,0 -0.002,-0.11 0.049,-0.165l0.146,-0.115c0.139,-0.149 -0.009,-0.063 0.035,-0.212c0,0 -0.015,-0.189 0.085,-0.242c0,0 -0.046,-0.093 -0.04,-0.148l0.018,-0.092c0.02,-0.146 0.011,-0.114 -0.037,-0.113c0,0 -0.14,0.017 -0.191,-0.068l-0.041,-0.225c-0.037,-0.172 -0.065,-0.108 -0.076,-0.162l-0.01,-0.092c-0.069,-0.169 -0.101,-0.053 -0.063,-0.194l0.012,-0.11l-0.12,-0.099c-0.195,-0.148 -0.16,-0.082 -0.196,-0.078c-0.094,0.01 -0.145,-0.102 -0.145,-0.102c-0.056,-0.08 -0.005,-0.137 -0.005,-0.137l-0.073,-0.068c-0.175,-0.131 -0.183,-0.12 -0.183,-0.12l-0.077,-0.057c0,0 -0.147,0.086 -0.224,0.075l-0.101,-0.022c-0.017,-0.005 -0.017,-0.005 -0.032,-0.013l-0.153,-0.084l-0.209,-0.011c-0.174,-0.046 -0.075,-0.063 -0.164,-0.154c0,0 -0.093,0.017 -0.137,-0.043c0,0 -0.03,-0.105 -0.083,-0.056l-0.082,0.065c-0.016,0.011 -0.016,0.011 -0.035,0.018l-0.225,0.044c-0.042,0.001 -0.068,-0.015 -0.081,-0.02c0,0 -0.001,0.12 -0.088,0.144l-0.185,-0.025c-0.104,-0.061 -0.064,-0.105 -0.227,-0.119l-0.283,-0.039c0,0 -0.083,0.056 -0.148,0.041c-0.145,-0.047 -0.293,-0.126 -0.293,-0.126c-0.179,-0.035 -0.284,0.055 -0.284,0.055l-0.101,0.086l0.029,0.154c0,0.02 0,0.02 -0.004,0.039c0,0 -0.013,0.096 -0.063,0.147c0,0 -0.063,0.077 -0.132,0.095l-0.107,0.018c-0.02,0.002 -0.02,0.002 -0.041,-0.001l-0.107,-0.026c-0.018,-0.007 -0.018,-0.007 -0.035,-0.017c0,0 -0.092,-0.043 -0.124,-0.113l-0.063,-0.111l-0.11,-0.014c-0.054,-0.011 -0.094,-0.037 -0.094,-0.037c0,0 -0.073,0.078 -0.153,0.063c0,0 -0.102,-0.014 -0.141,-0.072l-0.083,-0.149l-0.199,-0.025l-0.171,0.08c-0.036,0.004 -0.046,-0.001 -0.058,-0.004l-0.172,-0.052c0,0 -0.049,-0.015 -0.195,0.12l-0.178,0.128l-0.073,0.075c-0.013,0.009 -0.013,0.009 -0.026,0.015l-0.171,0.091l-0.092,0.062c-0.049,0.029 -0.115,0.041 -0.115,0.041l-0.196,0.082c-0.049,0.026 -0.094,0.057 -0.134,0.094c-0.191,0.176 -0.155,0.163 -0.155,0.163l-0.086,0.06c-0.017,0.009 -0.017,0.009 -0.036,0.016l-0.172,0.046l-0.149,0.141c-0.093,0.062 -0.23,0.085 -0.23,0.085c-0.134,0.031 -0.051,0.033 -0.177,0.047l-0.169,0.05l-0.225,0.026l-0.264,0.08c-0.022,0.024 -0.031,0.026 -0.04,0.031l-0.171,0.094c-0.128,0.046 -0.137,0.044 -0.137,0.044l-0.107,0.194c-0.132,0.126 -0.041,0.039 -0.08,0.128c0,0 0.012,0.172 -0.037,0.244l-0.053,0.065c-0.069,0.218 -0.051,0.203 -0.051,0.203l-0.097,0.17l-0.093,0.224c0,0 -0.177,0.173 -0.243,0.228c-0.087,0.071 -0.157,0.133 -0.157,0.133l-0.168,0.167l-0.217,0.07c-0.021,0.138 0.026,0.126 0.006,0.191l-0.02,0.184l-0.021,0.103c-0.048,0.256 -0.036,0.224 -0.036,0.224l-0.014,0.171l0.076,0.242c0.204,0.13 0.142,0.045 0.198,0.105l0.066,0.086c0.008,0.012 0.008,0.012 0.014,0.025l0.039,0.103c0.129,0.324 0.215,0.401 0.607,0.495l0.106,0.027c0.103,0.03 0.103,0.03 0.205,0.063l0.224,0.058l0.096,0.051c0.33,0.202 0.371,0.109 0.371,0.109l0.098,0.032c0.275,0.075 0.074,-0.019 0.421,0.092l0.124,0.057c0.028,0.025 0.03,0.036 0.036,0.047l0.029,0.08c0.159,0.169 0.169,0.064 0.241,0.116c0,0 0.124,0.072 0.101,0.214l0.162,0.165l0.121,0.22l0.181,0.134l0.182,0.104c0.206,0.112 0.15,0.031 0.212,0.08c0,0 0.087,0.152 0.087,0.152l0.034,-0.126c0.016,-0.033 0.025,-0.038 0.034,-0.047c0,0 0.079,-0.09 0.165,-0.07c0,0 0.143,0.014 0.16,0.12c0,0 0.198,0.045 0.198,0.045c0.006,0.001 0.011,0.002 0.016,0.003Z"/><path d="M68.448,46.985l0.197,0.092c0.083,0.006 0.122,0.077 0.122,0.077l0.083,0.059c0.089,0.097 0.115,0.157 0.115,0.157l0.173,0.001l0.212,0.064c0.204,0.025 0.212,-0.008 0.212,-0.008l0.321,0.086c0,0 0.041,-0.06 0.117,-0.06l0.263,0.012c0.038,-0.003 0.047,0.003 0.059,0.008l0.183,0.043l0.381,0.04l0.188,0.013c0.016,0.001 0.016,0.001 0.031,0.005c0,0 0.146,0.049 0.307,0.098c0.2,0.061 0.161,-0.016 0.161,-0.016c0,0 0.06,-0.096 0.148,-0.088l0.238,0.047l0.143,0.093c0.084,-0.029 0.236,0.032 0.236,0.032c0.483,0.091 0.386,0.043 0.432,0.052l0.327,0.119c0.078,-0.009 0.042,0.018 0.211,-0.062l0.09,-0.282c0.013,-0.086 0.02,-0.103 0.024,-0.158c0,0 -0.007,-0.086 0.049,-0.147l0.179,-0.116c0.111,-0.043 0.119,-0.026 0.16,-0.018l0.209,0.125l0.085,0.082c0.009,0.014 0.009,0.014 0.015,0.028l0.034,0.098c0.037,0.088 0.038,0.088 0.094,0.164l0.06,0.095c0.007,0.012 0.007,0.012 0.012,0.025l0.07,0.25c0,0 0.057,0.091 0.198,0.13c0,0 0.155,-0.068 0.239,0.018c0,0 0.005,0.022 0.147,-0.016l0.189,0.113c0.094,-0.049 0.177,0.039 0.177,0.039c0,0 0.059,-0.172 0.182,-0.141l0.148,0.018c0.083,0.021 0.078,0.046 0.087,0.097c0,0 0.065,-0.062 0.138,-0.041l0.197,0.052c0.115,0.051 0.025,0.019 0.102,0.008l0.155,-0.003l0.195,-0.082c0.044,-0.004 0.14,0.039 0.14,0.039c0.323,0.112 0.095,-0.044 0.297,-0.062l0.159,-0.093c0.137,-0.044 0.199,-0.017 0.199,-0.017c0,0 0.071,-0.086 0.157,-0.053l0.205,0.16c0.14,-0.138 0.02,-0.132 0.164,-0.138l0.199,-0.007c0.109,0.011 -0.009,-0.061 0.166,-0.048l0.104,0.019c0.095,0.025 -0.008,0.017 0.376,0.04l0.194,0.027c0.113,0.039 0.156,0.195 0.156,0.195c0.019,0.063 0.006,0.116 0.006,0.116l0.163,-0.017l0.238,-0.007c0.034,0.009 0.04,0.017 0.05,0.024c0,0 0.113,0.064 0.111,0.155l-0.03,0.23l-0.043,0.09c-0.033,0.056 -0.086,0.09 -0.086,0.09l-0.046,0.09c-0.146,0.209 -0.142,0.193 -0.142,0.193l-0.249,0.303c-0.05,0.05 -0.149,0.096 -0.149,0.096c-0.123,0.097 -0.082,0.096 -0.109,0.121l-0.074,0.057c-0.209,0.164 -0.186,0.147 -0.186,0.147c0,0 -0.23,0.14 -0.255,0.16c-0.256,0.208 -0.127,0.141 -0.205,0.157c0,0 -0.091,-0.008 -0.282,0.17l-0.109,0.073c-0.12,0.047 -0.056,0.082 -0.163,0.106l-0.226,0.016c-0.097,-0.011 -0.115,0.012 -0.115,0.012l-0.153,0.101c-0.058,0.028 -0.108,0.023 -0.108,0.023l-0.12,0.089c-0.014,0.008 -0.014,0.008 -0.029,0.014l-0.221,0.045c-0.041,-0.001 -0.051,-0.009 -0.064,-0.016l-0.152,-0.044l-0.188,0.102c-0.201,0.082 -0.199,0.087 -0.199,0.087l-0.224,0.013c-0.062,-0.007 -0.102,-0.038 -0.102,-0.038c0,0 -0.099,0.01 -0.154,-0.042l-0.092,-0.096l-0.282,-0.019l-0.205,-0.072c-0.098,-0.011 -0.098,-0.011 -0.196,-0.019l-0.225,-0.047c-0.267,-0.041 -0.17,0.005 -0.242,-0.032l-0.387,-0.117l-0.191,-0.053l-0.198,-0.087c-0.131,-0.035 -0.364,-0.062 -0.364,-0.062c-0.049,-0.014 -0.099,-0.067 -0.099,-0.067l-0.125,-0.023c-0.096,-0.037 -0.096,-0.036 -0.189,-0.08l-0.213,-0.043c-0.08,-0.031 -0.11,-0.124 -0.11,-0.124l-0.117,-0.063l-0.209,-0.002c-0.021,-0.002 -0.021,-0.002 -0.042,-0.009l-0.092,-0.043c-0.285,-0.087 -0.191,-0.038 -0.223,-0.007c-0.075,0.072 -0.193,-0.001 -0.193,-0.001l-0.203,-0.03c-0.091,-0.024 -0.159,-0.041 -0.159,-0.041l-0.141,0.058c-0.139,0.111 -0.057,0.081 -0.283,-0.004l-0.193,0.045l-0.343,0.071l-0.198,0.023c0,0 -0.069,0.053 -0.152,0.037l-0.086,-0.027c-0.223,0 -0.137,0.042 -0.213,0.03l-0.093,-0.025c-0.174,-0.011 -0.19,0.022 -0.19,0.022l-0.225,-0.003l-0.21,0.029c-0.11,0.004 -0.11,0.004 -0.219,0l-0.218,0.015l-0.215,0.009l-0.22,0.032l-0.294,0.051c-0.093,-0.01 -0.092,-0.019 -0.092,-0.019l-0.073,-0.032c-0.23,-0.047 -0.207,-0.037 -0.207,-0.037l-0.19,-0.047l-0.214,-0.035c-0.225,-0.036 -0.321,-0.005 -0.321,-0.005l-0.226,-0.081c0,0 -0.081,-0.044 -0.111,-0.107c0,0 -0.071,-0.112 -0.011,-0.192l0.067,-0.07c0.129,-0.209 0.138,-0.223 0.138,-0.223l0.036,-0.2l0.077,-0.182c0.036,-0.05 0.077,-0.095 0.077,-0.095c0,0 -0.001,-0.075 0.037,-0.128l0.139,-0.153l0.052,-0.078c0.01,-0.014 0.01,-0.014 0.022,-0.025l0.198,-0.13l0.086,-0.022c0.078,-0.039 0.077,-0.041 0.142,-0.1l0.083,-0.069c0.189,-0.182 0.108,-0.125 0.117,-0.183c0,0 0.052,-0.142 0.066,-0.162l0.013,-0.333c-0.054,-0.07 -0.195,-0.179 -0.195,-0.179c-0.025,-0.027 -0.026,-0.037 -0.03,-0.049c0,0 -0.043,-0.105 -0.012,-0.169c0,0 0.049,-0.107 0.109,-0.132c0,0 0.1,-0.047 0.164,-0.024l0.203,0.083l0.156,0.053l0.22,0.007l0.164,-0.016c0,0 0.074,-0.101 0.169,-0.072Zm0.633,2.881c0.216,-0.016 0.217,-0.036 0.217,-0.036l0.203,0.029l0.206,-0.028c0.052,0.004 0.097,0.025 0.097,0.025l0.199,-0.041c0.277,-0.042 0.393,-0.097 0.393,-0.097l0.141,0.008c0,0 0.058,-0.07 0.118,-0.06c0.228,0.039 0.243,-0.015 0.243,-0.015l0.082,-0.016c0.305,-0.022 0.2,-0.025 0.268,0.009c0,0 -0.006,0.026 0.234,0.058c0,0 0.066,-0.045 0.124,-0.04l0.224,0.025l0.193,0.072c0.091,0.001 0.217,0.004 0.217,0.004l0.126,0.028c0.017,0.009 0.017,0.009 0.032,0.021l0.129,0.154c0.185,0.054 0.192,0.037 0.192,0.037l0.096,0.045c0.089,0.034 0.089,0.033 0.183,0.049l0.178,0.064c0.171,0.03 0.343,0.084 0.343,0.084l0.079,0.05c0.207,0.057 0.184,0.045 0.184,0.045l0.192,0.05c0.251,0.051 0.245,0.063 0.245,0.063l0.154,0.046l0.219,0.047l0.204,0.023l0.108,0.012c0.017,0.003 0.017,0.003 0.033,0.009c0,0 0.075,0.049 0.172,0.063c0.036,0.006 0.291,0.019 0.291,0.019c0.037,0.007 0.045,0.015 0.055,0.022l0.114,0.109l0.156,0.043c0.091,0.002 0.231,-0.049 0.231,-0.049c0.09,-0.037 0.09,-0.037 0.183,-0.069l0.195,-0.094c0.184,-0.026 0.143,0.185 0.464,-0.055l0.12,-0.029c0.064,-0.039 0.064,-0.039 0.125,-0.082c0,0 0.08,-0.077 0.154,-0.069l0.086,0.02c0.251,-0.002 0.089,-0.041 0.293,-0.103l0.127,-0.102l0.19,-0.14c0.091,-0.033 0.081,0.013 0.234,-0.128c0,0 -0.032,0.019 0.187,-0.133l0.176,-0.113c0.221,-0.173 0.178,-0.173 0.2,-0.195c0.081,-0.084 0.137,-0.118 0.197,-0.137l0.106,-0.163l0.152,-0.14l0.053,-0.073c0.131,-0.187 0.12,-0.196 0.12,-0.196l0.063,-0.059c0.109,-0.229 0.024,-0.203 0.024,-0.203c0,0 -0.004,-0.028 -0.229,0.037l-0.238,-0.012c-0.149,-0.05 -0.073,-0.17 -0.073,-0.17l-0.029,-0.14l-0.146,-0.023c-0.032,-0.002 -0.063,-0.005 -0.095,-0.006c-0.023,0 -0.209,0.009 -0.209,0.009c-0.112,-0.025 -0.138,-0.054 -0.138,-0.054c0,0 -0.049,0.059 -0.112,0.055l-0.229,-0.005c0,0 -0.062,0.11 -0.149,0.131c0,0 -0.098,0.025 -0.155,-0.01l-0.14,-0.137l-0.187,0.045c-0.258,0.027 -0.086,0.092 -0.267,0.108l-0.146,0.081c-0.019,0.006 -0.019,0.006 -0.04,0.008l-0.317,-0.054c0,0 -0.052,0.07 -0.126,0.074l-0.089,-0.004c-0.201,0.01 -0.098,0.087 -0.214,0.031c-0.166,-0.08 -0.217,-0.074 -0.217,-0.074c0,0 -0.085,0.142 -0.192,0.056c0,0 -0.146,-0.11 -0.146,-0.11l-0.156,0.138c-0.157,0.067 -0.118,-0.024 -0.235,-0.055l-0.173,-0.093c-0.046,-0.043 -0.066,-0.017 -0.101,-0.017l-0.182,-0.031c-0.087,0.06 -0.182,-0.005 -0.182,-0.005l-0.21,-0.102c-0.012,-0.013 -0.012,-0.013 -0.022,-0.028l-0.1,-0.196c0,0 0.008,-0.083 -0.03,-0.166c-0.023,-0.05 -0.122,-0.181 -0.122,-0.181l-0.071,-0.182l-0.166,-0.126c-0.187,0.026 -0.148,0.089 -0.148,0.089c0,0 0.05,0.08 0.017,0.14c-0.154,0.284 -0.069,0.265 -0.123,0.35c0,0 -0.047,0.083 -0.103,0.115l-0.224,0.082l-0.313,-0.054l-0.137,-0.057l-0.187,-0.008c-0.078,-0.015 -0.078,-0.015 -0.158,-0.029l-0.238,-0.051l-0.15,0.048c-0.142,0.009 -0.116,-0.147 -0.116,-0.147l-0.167,-0.016c0,0 -0.042,0.111 -0.134,0.116l-0.111,-0.005c-0.104,-0.012 -0.153,-0.044 -0.231,-0.068c-0.097,-0.03 -0.097,-0.029 -0.194,-0.062l-0.273,-0.007l-0.231,-0.012c-0.054,-0.011 -0.109,-0.044 -0.109,-0.044l-0.25,-0.03l-0.17,-0.019c0,0 -0.049,0.06 -0.115,0.06l-0.208,-0.006c-0.066,-0.015 -0.164,-0.085 -0.164,-0.085l-0.224,0.006c-0.139,-0.028 -0.144,-0.071 -0.28,-0.044c0,0 -0.134,-0.011 -0.192,-0.06l-0.077,-0.079c-0.122,-0.142 -0.128,-0.145 -0.128,-0.145l-0.199,-0.086c-0.055,-0.033 -0.022,0.007 -0.086,0.028l-0.106,0.025c-0.011,0.002 -0.011,0.002 -0.023,0.002l-0.222,-0.01l-0.263,-0.023c0,0 -0.276,-0.074 -0.276,-0.074l0.146,0.126c0.158,0.189 0.102,0.123 0.1,0.196l0.003,0.168c-0.008,0.053 -0.032,0.091 -0.032,0.091c0,0 0.042,0.074 0.002,0.146c0,0 -0.064,0.039 -0.055,0.18l-0.101,0.156c-0.083,0.079 -0.082,0.079 -0.17,0.153l-0.08,0.072c-0.011,0.008 -0.011,0.008 -0.023,0.015l-0.191,0.073c-0.064,0.039 -0.188,0.177 -0.188,0.177l-0.118,0.128c-0.033,0.179 0.034,0.103 -0.054,0.182l-0.148,0.261c0,0 0.025,0.075 -0.008,0.135l-0.107,0.168l-0.053,0.087c-0.038,0.048 -0.105,0.033 0.002,0.089c0.037,0.019 0.253,0.038 0.253,0.038l0.235,0.021l0.193,0.03c0.104,0.022 0.104,0.022 0.207,0.051l0.228,0.044l0.155,0.023l0.226,-0.036c0.2,-0.027 0.217,-0.032 0.217,-0.032l0.218,-0.009l0.225,-0.016l0.107,0.005c0.172,-0.006 0.207,-0.023 0.207,-0.023l0.129,-0.01c0.032,0.004 0.065,0.008 0.097,0.011Z"/><path d="M82.269,51.21c0.087,0.052 0.053,0.174 0.053,0.174c0.031,0.051 0.063,0.099 0.122,0.129l0.207,0.003c0.056,0.018 0.078,0.061 0.104,0.096c0,0 0.145,-0.025 0.205,0.034l0.063,0.076c0.011,0.016 0.011,0.016 0.018,0.034l0.044,0.123c0,0 0.089,-0.094 0.171,-0.002l0.058,0.085c0.009,0.015 0.009,0.015 0.014,0.032l0.023,0.09c0.136,0.208 0.045,0.195 0.22,0.067c0,0 0.16,-0.051 0.158,0.094l-0.029,0.15c0,0 0.052,0.067 0.03,0.127c-0.07,0.19 0.042,0.231 0.042,0.231c0.01,0.009 0.01,0.009 0.018,0.019l0.162,0.22c0,0 0.101,0.038 0.123,0.117l0.052,0.233c0.261,0.139 0.102,-0.03 0.284,0.262c0.106,0.195 0.058,0.244 0.058,0.244c0,0 0.146,0.049 0.184,0.123l0.037,0.09c0.104,0.326 0.074,0.187 0.074,0.187c-0.051,-0.244 0.022,-0.173 0.217,-0.104l0.307,-0.005c0.046,-0.034 0.094,-0.028 0.137,-0.029l0.165,-0.086l0.203,-0.128c0,0 0.077,-0.043 0.16,-0.011l0.116,0.035l0.178,-0.093l0.091,-0.023c0.059,-0.01 0.111,0.006 0.111,0.006l0.247,-0.064l0.126,-0.116c0.103,-0.054 0.128,-0.062 0.128,-0.062c0,0 0.024,-0.093 0.094,-0.12l0.235,-0.084c0,0 0.031,-0.06 0.102,-0.08l0.165,-0.035c0,0 0.118,-0.042 0.183,0.007l0.176,-0.134c0.048,-0.037 0.115,-0.022 0.14,-0.017c0,0 0.115,-0.077 0.185,-0.002c0,0 0.231,0.102 0.231,0.102l0.192,-0.048c0.033,-0.016 0.124,-0.012 0.124,-0.012c0.267,-0.076 0.146,-0.116 0.266,-0.044l0.171,0.164c0.086,0.12 0.076,0.033 0.076,0.033l0.084,-0.064c0.087,-0.051 0.119,-0.011 0.153,0.039l0.263,0.024l0.183,0.015c0.125,0.048 0.101,0.138 0.145,0.114c0.08,-0.045 0.182,0.086 0.182,0.086c0.039,0.055 0.021,0.101 0.013,0.15c0,0 0.027,0.041 0.027,0.102c0,0 0.075,-0.019 0.141,0.019l0.084,0.061c0.031,0.028 0.032,0.042 0.038,0.055l0.029,0.138l0.33,0.133c0.171,-0.03 0.129,0.175 0.129,0.175l0.181,0.184l0.254,0.12c0.147,0.092 0.097,0.263 0.162,0.258c0.109,-0.008 0.154,0.069 0.154,0.069c0,0 0.036,-0.078 0.12,-0.102c0,0 0.164,-0.072 0.205,0.055c0.01,0.034 -0.071,0.072 0.2,0.081c0,0 0.075,-0.008 0.094,0.077c0.014,0.06 0.042,0.149 0.042,0.149l0.062,0.244c0.102,0.003 0.135,0.117 0.135,0.117l0.096,0.057c0.13,-0.079 0.179,0.085 0.179,0.085c0.15,-0.006 0.052,-0.05 0.187,-0.049c0,0 0.13,-0.039 0.207,-0.006l0.154,0.066c0.072,0.058 0.106,0.093 0.106,0.093l0.27,0.162c0,0 0.176,0.126 0.229,0.144l0.213,0.004c0.084,-0.028 0.152,0.029 0.152,0.029l0.126,0.015c0.195,0.09 0.281,0.144 0.281,0.144l0.314,0.096c0.076,0.027 0.155,0.115 0.124,0.201l0.156,0.114l0.148,0.155c0.066,0.106 0.06,0.16 0.06,0.16c0,0 0.241,0.062 0.038,0.215c0,0 0.12,0.022 0.092,0.136l-0.103,0.208l0.022,0.102c0,0.017 0,0.017 -0.004,0.035l-0.062,0.166c0.015,0.123 0.023,0.122 0.023,0.122l0.007,0.101c-0.038,0.136 -0.072,0.101 -0.098,0.187c0,0 0.05,0.11 -0.021,0.169l-0.118,0.079c-0.026,0.056 -0.067,0.084 -0.067,0.084l-0.096,0.162c-0.073,0.076 -0.073,0.076 -0.143,0.156l-0.079,0.078c-0.028,0.022 -0.038,0.023 -0.05,0.026l-0.196,0.03c-0.368,0.133 -0.403,0.292 -0.403,0.292c0,0 0.018,0.084 -0.036,0.143l-0.075,0.066c0,0 0.02,0.095 -0.044,0.143l-0.253,0.094c-0.058,0.021 -0.125,0.018 -0.125,0.018l-0.094,0.037c-0.018,0.002 -0.018,0.002 -0.036,0.001l-0.103,-0.015c-0.017,-0.005 -0.017,-0.005 -0.033,-0.012l-0.121,-0.062l-0.223,0.145c0,0 -0.052,0.073 -0.147,0.074l-0.182,0.013c-0.105,-0.008 -0.102,0 -0.102,0l-0.149,0.17c-0.11,0.069 -0.168,0.059 -0.168,0.059l-0.147,0.133c-0.154,0.068 -0.089,0.062 -0.14,0.085c-0.241,0.107 -0.297,-0.118 -0.297,-0.118c0,0 -0.069,-0.024 -0.14,-0.005c-0.138,0.038 -0.182,0.155 -0.274,0.073l-0.178,0.018c-0.067,-0.012 -0.159,-0.118 -0.159,-0.118l-0.184,-0.041c-0.163,0.021 -0.283,0.061 -0.283,0.061l-0.249,0.08l-0.232,0.16l-0.207,0.085l-0.27,0.1l-0.074,0.053c-0.226,0.124 -0.214,0.108 -0.214,0.108l-0.182,0.068l-0.268,0.083l-0.182,0.145l-0.219,0.069l-0.216,0.001l-0.186,-0.025l-0.187,-0.002c-0.079,0.005 -0.079,0.005 -0.157,0.012c0,0 -0.051,0.058 -0.132,0.058l-0.214,-0.052l-0.17,0.079l-0.294,0.087l-0.213,-0.003c-0.016,-0.004 -0.016,-0.004 -0.031,-0.011l-0.146,-0.08l-0.189,0c-0.183,-0.038 -0.062,0.058 -0.191,0.008c-0.032,-0.012 -0.051,-0.041 -0.072,-0.066l-0.185,-0.032c-0.097,-0.047 -0.091,-0.164 -0.091,-0.164c-0.01,-0.061 0.007,-0.109 0.007,-0.109l-0.035,-0.045l-0.18,0.071c-0.126,0.005 -0.251,-0.119 -0.251,-0.119c-0.028,-0.023 -0.03,-0.033 -0.036,-0.044l-0.089,-0.147c-0.032,-0.086 0.037,-0.212 0.059,-0.242c0,0 0.039,-0.028 -0.115,-0.199l-0.122,-0.116c-0.031,-0.02 -0.035,-0.031 -0.042,-0.041c0,0 -0.098,-0.134 -0.009,-0.209l0.174,-0.167l-0.009,-0.116c-0.007,-0.033 -0.003,-0.042 -0.001,-0.052l0.033,-0.158l-0.053,-0.21l-0.015,-0.174c0.016,-0.256 0.01,-0.167 0.009,-0.189c0,0 0.016,-0.082 0.002,-0.174c-0.006,-0.04 -0.059,-0.236 -0.059,-0.236c0,0 0.026,-0.219 -0.05,-0.356c-0.109,-0.196 -0.131,-0.196 -0.131,-0.196l-0.047,-0.228l-0.058,-0.154c-0.033,-0.066 0.005,-0.133 0.01,-0.146l-0.017,-0.249c-0.038,-0.079 -0.031,-0.229 -0.031,-0.229c-0.196,-0.19 -0.229,-0.176 -0.304,-0.204l-0.185,-0.088l-0.192,-0.032c-0.214,0.027 -0.174,0.085 -0.201,0.109c-0.026,0.022 -0.065,0.029 -0.096,0.039l-0.114,0.174l-0.073,0.07c-0.055,0.042 -0.117,0.049 -0.117,0.049l-0.237,0.05c-0.017,-0.001 -0.017,-0.001 -0.033,-0.004l-0.098,-0.029c-0.021,-0.01 -0.021,-0.01 -0.04,-0.024l-0.161,-0.108l-0.182,-0.104c-0.092,-0.052 -0.092,-0.051 -0.182,-0.105l-0.189,-0.034c-0.211,-0.038 -0.228,-0.049 -0.228,-0.049l-0.119,-0.05c-0.088,-0.058 -0.088,-0.058 -0.17,-0.124l-0.177,-0.094c-0.213,-0.112 -0.162,-0.006 -0.247,-0.003l-0.176,-0.034c-0.022,-0.011 -0.022,-0.011 -0.04,-0.027l-0.138,-0.19c-0.043,-0.096 -0.029,-0.137 -0.066,-0.182c-0.042,-0.051 -0.241,-0.154 -0.241,-0.154l-0.114,-0.083l-0.117,-0.178l-0.125,-0.142l-0.154,-0.148l-0.152,-0.159l-0.143,-0.196l-0.108,-0.153c0,0 -0.081,-0.093 -0.064,-0.171l0.026,-0.179l0.005,-0.183c-0.127,-0.238 -0.174,-0.181 -0.201,-0.229c0,0 -0.059,-0.078 -0.049,-0.16c0,0 -0.016,-0.137 0.02,-0.212c0,0 0.068,-0.034 0.068,-0.221l0.01,-0.215c0.006,-0.017 0.006,-0.017 0.014,-0.033l0.124,-0.173c0.087,-0.207 0.071,-0.217 0.071,-0.217l0.075,-0.159l0.048,-0.122c0.105,-0.122 0.055,-0.085 0.08,-0.145l0.144,-0.279c0.054,-0.176 -0.024,-0.115 0.033,-0.191c0.047,-0.064 0.13,-0.043 0.196,-0.031c0,0 0.101,-0.11 0.207,-0.034c0,0 0.051,-0.118 0.154,-0.137c0,0 -0.044,-0.058 -0.027,-0.121c0,0 0.022,-0.127 0.113,-0.151l0.157,-0.042c0.074,-0.002 0.195,0.078 0.195,0.078l0.167,-0.036c0.02,0 0.02,0 0.04,0.004l0.107,0l0.171,-0.135c0.029,-0.013 0.038,-0.011 0.049,-0.012l0.1,0.001c0.06,0.007 0.102,0.035 0.102,0.035c0,0 0.084,-0.03 0.129,-0.017Zm-0.471,4.902c0.017,0.004 0.016,0.004 0.032,0.011l0.18,0.1l0.19,0.119c0.076,0.05 0.156,0.085 0.254,0.106c0.22,0.045 0.224,0.029 0.224,0.029l0.217,0.098l0.189,0.104l0.209,0.115c0,0 0.022,0.138 0.281,0.039c0,0 0.113,-0.043 0.215,-0.236l0.178,-0.138c0.015,-0.012 0.015,-0.012 0.033,-0.021l0.233,-0.058c0.015,-0.001 0.015,-0.001 0.03,0.001l0.229,0.039l0.207,0.096l0.213,0.111l0.182,0.165c0.009,0.015 0.009,0.015 0.015,0.031c0,0 0.11,0.197 0.074,0.368l-0.009,0.21c-0.028,0.128 0.013,0.09 0.027,0.145l0.052,0.289l0.18,0.303l0.029,0.246l0.012,0.167l0.032,0.311l0.012,0.264c0.021,0.125 -0.028,0.126 0.039,0.257l-0.026,0.24l0.002,0.211c-0.005,0.019 -0.005,0.025 -0.15,0.197c0,0 0.111,0.146 0.111,0.146l0.136,0.213c0,0 0.056,0.118 0.015,0.191l-0.051,0.093l0.065,0.114c0.184,0.127 0.108,0.108 0.207,0.004c0,0 0.062,-0.043 0.122,-0.017l0.095,0.054c0.02,0.014 0.02,0.014 0.035,0.033l0.058,0.091c0.019,0.038 0.015,0.052 0.014,0.067l0.02,0.118l0.173,0.034c0.093,-0.052 0.177,0.024 0.177,0.024c0.212,0.03 0.121,-0.035 0.212,0.002c0,0 0.186,0.128 0.368,0.063l0.27,-0.075c0,0 0.037,-0.056 0.114,-0.066l0.238,0.05l0.191,-0.061c0.211,-0.014 0.425,0.004 0.425,0.004l0.17,0.023c0.081,-0.007 0.081,-0.008 0.158,-0.033l0.094,-0.031c0.166,-0.1 0.151,-0.13 0.151,-0.13l0.212,-0.067c0.205,-0.07 0.201,-0.087 0.201,-0.087l0.368,-0.178l0.172,-0.064c0.094,-0.034 0.094,-0.034 0.19,-0.063l0.078,-0.041c0.162,-0.11 0.155,-0.124 0.155,-0.124l0.186,-0.082l0.09,-0.041c0.057,-0.02 0.12,-0.016 0.12,-0.016l0.201,-0.051l0.132,-0.015c0.064,0.01 0.113,0.046 0.113,0.046l0.104,-0.002c0.024,0.008 0.024,0.008 0.044,0.022l0.131,0.1c0,0 0.108,-0.102 0.192,-0.028l0.157,-0.065l0.216,0.007c0.236,0.052 0.156,0.091 0.239,0.062l0.107,-0.035c0,0 0.024,-0.072 0.093,-0.107l0.215,-0.094c0,0 0.017,-0.072 0.072,-0.114c0,0 0.056,-0.068 0.15,-0.062l0.25,0l0.223,-0.14c0,0 0.09,-0.106 0.178,-0.082l0.244,0.094l0.275,-0.078l0.184,-0.201c0,0 -0.02,-0.064 0.029,-0.13c0.06,-0.065 0.146,-0.155 0.146,-0.155l0.186,-0.141l0.215,-0.086l0.154,-0.02l0.124,-0.132l0.113,-0.114l0.071,-0.152c0.005,-0.106 0.136,-0.132 0.136,-0.132c-0.009,-0.039 -0.004,-0.05 -0.001,-0.063l0.028,-0.089c0.033,-0.078 0.041,-0.076 0.041,-0.076l-0.003,-0.239c0.021,-0.133 0.066,-0.179 0.066,-0.179l-0.01,-0.21c0.013,-0.063 -0.07,-0.197 -0.07,-0.197c-0.02,-0.063 0.016,-0.115 0.064,-0.142l-0.058,-0.157l-0.184,-0.189l-0.171,-0.082c-0.081,-0.087 0.014,-0.076 -0.103,-0.186l-0.216,-0.051l-0.248,-0.128l-0.227,-0.008c-0.217,0.023 -0.318,-0.058 -0.318,-0.058l-0.201,-0.113l-0.052,-0.062c-0.162,-0.103 -0.139,-0.077 -0.139,-0.077l-0.252,-0.161c-0.107,-0.046 -0.02,0.002 -0.178,-0.014l-0.276,0.079c-0.087,-0.001 -0.127,-0.043 -0.127,-0.043c0,0 -0.148,0.034 -0.166,-0.146l-0.245,-0.189c-0.049,-0.064 -0.037,-0.215 -0.037,-0.215l-0.068,-0.17l-0.183,0.022c-0.103,-0.018 -0.105,-0.093 -0.105,-0.093l-0.109,0.04c-0.158,0.014 -0.167,-0.04 -0.193,-0.06c0,0 -0.067,0.044 -0.129,-0.004c-0.082,-0.062 -0.085,-0.2 -0.085,-0.2l-0.102,-0.097c-0.02,-0.005 -0.02,-0.005 -0.039,-0.015l-0.184,-0.125l-0.141,-0.114c-0.058,-0.048 -0.073,-0.108 -0.073,-0.108l-0.225,-0.146l-0.248,-0.156c-0.059,-0.075 -0.032,-0.169 -0.032,-0.169l-0.214,-0.025c-0.108,-0.043 -0.065,-0.189 -0.065,-0.189c0,0 -0.033,-0.056 -0.028,-0.112l-0.163,-0.067c-0.055,-0.003 -0.091,-0.03 -0.106,-0.085l-0.174,0.023c-0.121,0.097 -0.254,-0.074 -0.254,-0.074c0,0 -0.069,0.087 -0.153,0.083c0,0 -0.124,0.006 -0.172,-0.071l-0.038,-0.085c-0.096,-0.117 -0.132,-0.069 -0.132,-0.069l-0.275,0.076l-0.209,0.017c-0.081,-0.007 -0.191,-0.072 -0.191,-0.072c-0.123,0.067 -0.103,-0.008 -0.236,-0.033l-0.212,0.168c-0.104,0.072 -0.116,0.015 -0.165,-0.031l-0.183,0.037l-0.306,0.154l-0.13,0.145c-0.104,0.065 -0.132,0.055 -0.132,0.055c0,0 -0.041,0.092 -0.113,0.109l-0.095,0.013c-0.229,0.029 -0.14,0.062 -0.215,0.061l-0.087,-0.01c-0.075,0.019 -0.074,0.023 -0.14,0.061l-0.091,0.046c-0.021,0.007 -0.021,0.007 -0.043,0.01l-0.204,-0.04c-0.196,0.043 -0.215,0.126 -0.215,0.126l-0.18,0.096c-0.151,0.049 -0.111,0.062 -0.177,0.069l-0.283,0c-0.185,-0.039 -0.005,0.03 -0.136,0.088c0,0 -0.066,0.046 -0.152,0.02l-0.183,-0.135c-0.071,-0.091 -0.056,-0.103 -0.062,-0.139l-0.056,-0.157c0,0 -0.088,0.014 -0.138,-0.067l-0.043,-0.093c-0.038,-0.113 0.02,-0.105 -0.081,-0.266l-0.21,-0.136c-0.095,-0.1 -0.09,-0.298 -0.09,-0.298l-0.142,-0.123l-0.109,-0.165l-0.081,-0.069c-0.011,-0.016 -0.011,-0.016 -0.018,-0.034l-0.043,-0.232c0.007,-0.26 -0.025,-0.139 -0.025,-0.139c-0.024,0 -0.024,0 -0.047,-0.006c0,0 -0.082,-0.01 -0.131,-0.068l-0.182,-0.249c-0.145,-0.001 -0.15,-0.033 -0.181,-0.085l-0.084,-0.199l-0.169,-0.019c-0.052,-0.019 -0.075,-0.061 -0.099,-0.094l-0.144,0.013c-0.023,-0.002 -0.023,-0.002 -0.045,-0.011l-0.094,-0.048c-0.017,-0.01 -0.017,-0.01 -0.03,-0.023l-0.127,-0.175c-0.025,-0.053 -0.036,-0.035 -0.036,-0.035l-0.137,-0.035l-0.083,0.068c0,0 -0.025,0.184 -0.167,0.133l-0.131,-0.053l-0.183,0.032c-0.021,-0.001 -0.021,-0.001 -0.042,-0.006l-0.088,-0.032c-0.163,-0.078 -0.096,0.022 -0.096,0.022c0.164,0.324 -0.154,0.244 -0.154,0.244l-0.132,0.147c-0.095,0.068 -0.123,0.008 -0.154,-0.014l-0.144,0.059l-0.074,0.206c-0.046,0.143 -0.096,0.158 -0.096,0.158c0,0 0.02,0.059 -0.037,0.127l-0.061,0.055c-0.075,0.201 -0.067,0.207 -0.067,0.207l-0.073,0.166l-0.163,0.268l-0.007,0.268c-0.002,0.018 -0.002,0.018 -0.007,0.036l-0.04,0.101c-0.05,0.101 -0.013,0.072 -0.021,0.133l0.001,0.113l0.164,0.164l0.052,0.097c0.008,0.02 0.008,0.02 0.012,0.043l-0.004,0.224l-0.021,0.188c0.093,0.149 0.114,0.138 0.114,0.138c0,0 0.191,0.285 0.214,0.308c0.07,0.073 0.228,0.219 0.228,0.219l0.093,0.088c0.059,0.087 0.059,0.087 0.113,0.176l0.048,0.068c0.159,0.104 0.174,0.086 0.174,0.086l0.176,0.146c0.01,0.01 0.01,0.01 0.018,0.022l0.056,0.094c0.055,0.115 0.014,0.132 0.112,0.237l0.071,0.015c0,0 0.109,-0.049 0.235,-0.03Z"/><path d="M83.225,62.151l0.193,0.035c0.344,0.059 0.038,0.416 0.038,0.416c-0.138,0.149 0.037,0 -0.178,0.238c-0.191,0.188 -0.328,-0.07 -0.328,-0.07c-0.078,0.12 -0.232,0.009 -0.232,0.009l-0.146,0.078c-0.044,0.021 -0.112,0.034 -0.112,0.034c0,0 -0.084,0.164 -0.338,-0.043l-0.115,-0.146c0,0 -0.038,0.154 -0.178,0.127l-0.174,-0.012c-0.065,0.013 -0.007,-0.027 -0.231,0.057c-0.213,0.084 -0.151,0.096 -0.185,0.111c-0.323,0.101 -0.356,-0.087 -0.356,-0.087c-0.071,0.072 -0.115,0.131 -0.163,0.151l-0.179,0.065c-0.042,0.008 -0.083,-0.014 -0.094,-0.019c0,0 -0.08,0.068 -0.151,0.02l-0.131,-0.055c-0.167,-0.049 -0.142,-0.261 -0.142,-0.261l-0.146,-0.051c-0.224,-0.118 -0.15,0.026 -0.229,-0.244c-0.015,-0.065 0.026,-0.138 0.026,-0.138c0,0 -0.005,-0.1 0.064,-0.152l0.102,-0.109c0.034,-0.044 0.099,-0.073 0.099,-0.073l0.182,-0.165c0,0 0.007,-0.08 0.062,-0.114l0.229,-0.069c0.1,-0.019 0.24,-0.07 0.24,-0.07c0.247,-0.072 0.25,-0.064 0.25,-0.064l0.186,-0.14c0.097,-0.073 0.14,-0.072 0.14,-0.072l0.07,-0.05c0.247,-0.179 0.25,-0.171 0.25,-0.171c0,0 0.054,-0.078 0.108,-0.111c0.077,-0.037 0.118,-0.036 0.118,-0.036l0.249,-0.158l0.168,-0.074l0.194,-0.069c0.073,-0.016 0.108,-0.025 0.147,-0.02l0.196,0.018c0.069,0.014 0.127,0.092 0.127,0.092c0.492,0.315 0.159,0.113 0.527,0.523c0.044,0.056 0.04,0.158 0.04,0.158c0,0 0.059,0.157 -0.055,0.202l-0.134,0.047l-0.008,0.202c-0.001,0.155 -0.111,0.153 -0.111,0.153l-0.025,0.139c0,0 0.058,-0.049 0.136,-0.032Zm-2.289,0.479c0,0 0.13,0.048 0.131,0.129l0.014,0.06l0.142,-0.075c0.104,-0.079 0.2,-0.083 0.2,-0.083l0.281,-0.076c0.056,-0.012 0.127,0.023 0.127,0.023c0,0 0.003,-0.137 0.11,-0.153c0,0 0.143,-0.046 0.192,0.052c0,0 0.021,0.109 0.169,0.23l0.179,-0.06c0,0 0.122,-0.129 0.262,-0.098c0,0 0.219,-0.112 0.331,0.008l0.083,0.088c0,0 -0.013,-0.104 0.077,-0.165c0,0 0.118,-0.124 0.118,-0.124l-0.153,-0.031c0,0 -0.248,0.074 -0.289,-0.058l-0.001,-0.267c-0.002,-0.108 0.114,-0.18 0.114,-0.18c-0.007,-0.14 -0.008,-0.284 0.08,-0.326l0.121,-0.056l-0.064,-0.134l-0.144,-0.143c-0.096,-0.091 0.033,-0.077 -0.19,-0.213l-0.152,-0.113c-0.095,-0.002 -0.159,-0.016 -0.159,-0.016l-0.252,0.076l-0.166,0.073c-0.096,0.057 -0.152,0.077 -0.152,0.077l-0.17,0.138c-0.019,0.041 -0.035,0.047 -0.061,0.058l-0.094,0.032c-0.197,0.104 -0.072,0.053 -0.273,0.195l-0.214,0.134c-0.128,0.072 -0.018,0.062 -0.228,0.126l-0.104,0.021c-0.205,0.059 -0.094,0.053 -0.356,0.103l-0.128,0.026l-0.092,0.142c-0.164,0.161 -0.136,0.121 -0.163,0.141l-0.102,0.107c-0.03,0.037 -0.079,0.061 -0.079,0.061l-0.032,0.12l0.192,0.111c0,0 0.184,-0.018 0.193,0.228l0.006,0.051l0.153,0.022c0.094,-0.041 0.127,0.017 0.127,0.017l0.112,-0.04c0.089,-0.09 0.218,-0.219 0.218,-0.219c0.043,-0.03 0.041,-0.028 0.086,-0.019Z"/><path d="M74.313,53.598l0.179,-0.006c0.027,-0.005 0.034,-0.002 0.042,-0.001l0.217,0.047l0.215,0.031c0.17,0.035 0.347,0.096 0.347,0.096l0.184,0.076c0.011,0.006 0.011,0.006 0.022,0.013l0.169,0.129l0.187,0.153c0.076,0.076 0.247,0.193 0.247,0.193c0.037,0.033 0.078,0.092 0.078,0.092l0.149,0.144l0.168,0.13l0.154,0.143l0.166,0.151l0.172,0.164l0.13,0.143c0.038,0.044 0.063,0.128 0.063,0.128c0.037,0.083 0.228,0.357 0.228,0.357l0.076,0.237c0.025,0.345 0.04,0.188 -0.008,0.276l-0.064,0.163c-0.021,0.053 -0.076,0.099 -0.076,0.099l-0.127,0.194c-0.071,0.08 -0.153,0.245 -0.153,0.245l-0.102,0.181c-0.03,0.05 -0.098,0.094 -0.098,0.094c0,0 -0.039,0.079 -0.091,0.11l-0.107,0.054c-0.255,0.086 -0.226,0.016 -0.393,0.095l-0.189,0.058l-0.161,0.142c-0.16,0.1 -0.234,0.043 -0.234,0.043l-0.075,0.147c-0.145,0.139 -0.136,0.055 -0.202,0.033c-0.034,-0.011 -0.058,-0.027 -0.068,-0.081l-0.173,0.064c-0.233,0.039 -0.169,-0.06 -0.351,0.013l-0.136,-0.004c-0.087,-0.003 -0.087,-0.003 -0.175,-0.001l-0.384,0.042l-0.19,0.037c-0.045,0.008 -0.055,0 -0.077,-0.011c0,0 -0.096,-0.032 -0.116,-0.108c0,0 0.015,-0.106 -0.084,-0.211c-0.088,-0.095 -0.223,-0.172 -0.223,-0.172c-0.04,-0.045 -0.026,-0.129 -0.026,-0.129l-0.062,-0.177l-0.073,-0.251c0,0 -0.098,-0.03 -0.096,-0.124l0.005,-0.135c0.015,-0.095 0.047,-0.119 0.047,-0.119l-0.006,-0.199c-0.014,-0.138 0.053,-0.198 0.053,-0.198l-0.023,-0.199c-0.079,-0.185 -0.09,-0.125 -0.102,-0.2c0,0 0.016,-0.066 -0.074,-0.193c0,0 -0.061,0.014 -0.109,-0.062l-0.132,-0.116c-0.266,-0.158 -0.518,-0.282 -0.518,-0.282c-0.097,-0.03 -0.128,-0.074 -0.153,-0.118l-0.25,-0.106c-0.137,-0.105 -0.121,-0.2 -0.121,-0.2l-0.161,-0.223c-0.051,-0.079 0.015,-0.173 0.015,-0.173l0.005,-0.146c-0.01,-0.084 0.039,-0.144 0.039,-0.144c0,0 0.021,-0.082 0.079,-0.128l0.187,-0.101l0.189,-0.102c0,0 0.097,-0.099 0.218,-0.123l0.199,-0.052c0.012,-0.002 0.012,-0.002 0.024,-0.002l0.218,0.009l0.202,-0.014l0.207,-0.025c0,0 0.074,-0.039 0.131,-0.034l0.233,0.06l0.181,0.059l0.21,0.009l0.217,0.009c0.037,0.002 0.074,0.004 0.111,0.007Zm0.671,4.103l0.173,0.035c0.223,-0.052 0.113,-0.088 0.209,-0.084l0.156,0.014c0.017,-0.03 0.022,-0.031 0.039,-0.043c0,0 0.048,-0.058 0.133,-0.059c0,0 0.128,0.035 0.268,-0.126l0.25,-0.095l0.22,-0.075l0.094,0.002c0.077,-0.022 0.077,-0.021 0.148,-0.057l0.133,-0.146l0.098,-0.172l0.182,-0.284l0.087,-0.136c0.021,-0.053 0.072,-0.095 0.072,-0.095l0.067,-0.169c0.001,-0.16 -0.053,-0.324 -0.053,-0.324c-0.158,-0.204 -0.145,-0.18 -0.145,-0.18l-0.05,-0.1c-0.04,-0.089 -0.04,-0.089 -0.079,-0.179l-0.14,-0.159c-0.177,-0.184 -0.159,-0.148 -0.159,-0.148l-0.152,-0.136l-0.15,-0.14l-0.175,-0.135l-0.16,-0.156l-0.137,-0.121c-0.045,-0.031 -0.104,-0.08 -0.104,-0.08l-0.142,-0.155l-0.253,-0.173l-0.194,-0.083c-0.117,-0.04 0.033,-0.038 -0.398,-0.083l-0.305,-0.068l-0.225,0.006l-0.204,-0.015l-0.221,-0.008l-0.25,-0.033l-0.098,-0.041c-0.078,-0.03 -0.078,-0.033 -0.161,-0.045l-0.294,0.055c-0.05,0.009 -0.126,0.004 -0.126,0.004l-0.228,0.004c-0.189,0 -0.193,0.036 -0.193,0.036l-0.091,0.013c-0.21,0.116 -0.179,0.11 -0.179,0.11l-0.191,0.103l-0.135,0.068l-0.051,0.112l-0.014,0.209c-0.02,0.064 0.005,0.034 0.033,0.091l0.089,0.142c0.058,0.096 0.075,0.148 0.075,0.148l0.201,0.076c0.061,0.012 0.096,0.088 0.096,0.088c0,0 0.479,0.268 0.645,0.356c0.136,0.071 0.144,0.132 0.144,0.132c0,0 0.049,-0.007 0.095,0.05l0.129,0.294l0.102,0.206l0.039,0.163c0.028,0.145 -0.047,0.207 -0.047,0.207l-0.006,0.135c-0.008,0.104 0.057,0.02 -0.004,0.168l-0.05,0.103c0.008,0.126 0.04,0.002 0.08,0.154l0.044,0.173l0.061,0.194l0.068,0.187l0.173,0.123c0.097,0.13 0.12,0.257 0.12,0.257l0.164,-0.029l0.207,-0.039c0.103,-0.005 0.103,-0.005 0.207,-0.005l0.307,-0.008l0.115,-0.036c0.016,-0.001 0.005,-0.004 0.041,0.002Z"/><path d="M99.282,68.27l0.17,0.057l0.123,0.019c0.038,0.026 0.036,0.027 0.07,0.059l0.173,0.104l0.228,0.066l0.149,0.07c0.151,-0.06 0.084,-0.076 0.159,-0.068c0.179,0.018 0.176,0.128 0.211,0.182l0.171,0.045c0.127,0.072 0.088,0.112 0.168,0.181c0,0 0.056,-0.034 0.131,0.035l0.113,0.128c0,0 0.12,0.006 0.146,0.104l0.012,0.255c0.043,0.138 0.003,0.036 0.165,0.145l0.188,0.088l0.201,0.101l0.158,0.091l0.254,0.126l0.206,0.091l0.212,0.068c0.089,0.056 0.09,0.056 0.175,0.118l0.213,0.109l0.069,0.082c0.08,0.118 0.09,0.033 0.144,0.13l0.084,0.187l0.239,0.014l0.183,0.115c0.23,0.112 0.153,0.004 0.232,0.091l0.134,0.156l0.11,0.123c0.145,0.047 0.402,-0.055 0.402,-0.055l0.233,-0.083l0.205,-0.007l0.098,0.003c0.028,0.005 0.028,0.005 0.054,0.018l0.158,0.087l0.153,0.07c0,0 0.052,-0.014 0.092,-0.007c0.493,0.086 0.313,0.226 0.508,0.16l0.181,0.012c0.052,-0.008 0.067,0.004 0.084,0.012c0,0 0.101,0.096 0.328,0.131l0.199,0.061c0.05,0.02 0.048,0.023 0.094,0.051l0.231,0.043l0.088,0.049c0.173,0.076 0.194,0.054 0.194,0.054l0.264,0.126l0.19,0.089c0.089,0.03 0.208,0.072 0.208,0.072l0.158,0.094l0.217,0.113c0,0 0.035,0.13 0.306,0.159l0.248,0.112c0,0 0.231,0.127 0.248,0.142l0.176,0.08l0.205,0.02c0.048,0.027 0.079,0.088 0.091,0.11l0.194,0.09l0.354,0.164l0.193,0.093l0.209,0.089l0.172,0.065l0.234,0.057l0.2,0.112l0.333,0.232l0.2,0.179l0.186,0.029c0.071,0.041 0.051,0.157 0.051,0.157l0.094,0.034c0.089,0.049 0.089,0.049 0.175,0.103l0.18,0.086l0.186,0.128l0.166,0.155l0.07,0.081c0.064,0.098 0.088,0.097 0.088,0.097l0.212,0.081l0.178,0.135l0.156,0.137c0.099,0.09 0.248,0.184 0.248,0.184c0.113,0.15 0.104,0.101 0.134,0.133l0.053,0.068c0.138,0.123 0.158,0.116 0.158,0.116l0.097,0.085c0.312,0.439 0.242,0.231 0.326,0.342l0.052,0.089c0.021,0.053 0.017,0.054 0.03,0.11l0.089,0.178c0,0 0.099,0.019 0.132,0.057c0.048,0.054 0.07,0.155 0.07,0.155c0.344,0.182 0.223,0.108 0.24,0.136c0,0 0.04,-0.024 0.105,0.046l0.12,0.249l0.114,0.164c0.018,0.055 -0.011,0.105 -0.041,0.146l0.005,0.201c0,0 -0.056,0.242 -0.153,0.458c0,0 0.015,0.033 -0.005,0.095c0,0 0.085,0.024 0.096,0.107c0,0 0.007,0.084 -0.008,0.131c-0.016,0.048 -0.062,0.14 -0.062,0.14c0.061,0.239 0.092,0.116 0.067,0.232l-0.062,0.254l-0.014,0.206c-0.031,0.278 0.011,0.559 0.011,0.559c0.082,0.164 0.115,0.144 0.115,0.144c0.203,0 0.074,-0.079 0.19,-0.122c0.035,-0.014 0.125,-0.013 0.125,-0.013c0.111,0.031 0.112,0.031 0.112,0.031c0,0 0.105,-0.151 0.249,-0.106l0.142,-0.126l0.205,-0.033c0.044,0.002 0.055,0.013 0.068,0.02l0.236,0.112c0,0 0.026,-0.063 0.122,-0.071l0.187,0.02l0.122,0.018c0.025,0.016 0.025,0.016 0.044,0.038l0.12,0.16l0.123,0.193c0.036,0.092 0.037,0.092 0.069,0.186l0.109,0.189c0.027,0.098 0.028,0.098 0.048,0.197l0.081,0.248l-0.087,0.281c-0.016,0.168 0.003,0.172 0.003,0.172l0.003,0.149c0,0 0.064,0.083 0.059,0.139c-0.01,0.106 -0.04,0.243 -0.04,0.243l0.285,0.189l0.129,0.096l0.177,-0.014c0.023,0.004 0.023,0.004 0.044,0.013l0.089,0.052c0.039,0.03 0.042,0.047 0.048,0.063c0,0 0.028,0.073 0.024,0.123c-0.005,0.06 -0.057,0.18 -0.057,0.18c0.053,0.139 0.126,0.145 0.126,0.145l0.206,0.105l0.162,0.167l0.096,0.119l0.206,0.115c0,0 0.039,0.085 0.113,0.141c0.032,0.023 0.175,0.075 0.175,0.075c0.21,0.114 0.205,0.121 0.205,0.121l0.117,0.101l0.232,0.075l0.067,0.062c0.136,0.055 0.159,0.041 0.159,0.041l0.151,0.008c0.085,-0.002 0.114,0.052 0.15,0.09l0.178,0.098l0.123,0.095l0.221,0.029c0.112,0.063 0.3,0.192 0.3,0.192l0.123,0.188c0.026,0.145 0.01,0.153 -0.012,0.183c-0.016,0.022 -0.054,0.045 -0.072,0.057l-0.025,0.174c-0.064,0.106 -0.078,0.1 -0.078,0.1l-0.037,0.201c0.007,0.123 -0.031,0.131 -0.048,0.193l-0.126,0.21l-0.078,0.072c-0.091,0.065 -0.123,0.105 -0.123,0.105l-0.054,0.1c-0.017,0.016 -0.017,0.016 -0.037,0.028l-0.133,0.054l-0.127,0.174l-0.153,0.123l-0.084,0.07c-0.174,0.149 -0.172,0.153 -0.172,0.153l-0.167,0.07l-0.133,0.147c-0.095,0.041 -0.108,0.074 -0.108,0.074l-0.088,0.127l-0.184,0.094l-0.21,0.093c-0.027,0.011 -0.056,0.017 -0.081,0.032c-0.019,0.012 -0.162,0.143 -0.162,0.143l-0.169,0.11c-0.132,0.069 -0.087,0.056 -0.087,0.056l-0.161,0.216l-0.172,0.134l-0.167,0.134l-0.084,0.055c-0.157,0.128 -0.139,0.15 -0.139,0.15l-0.136,0.117l-0.077,0.111l-0.199,0.114l-0.189,0.098l-0.191,0.093l-0.161,0.073c-0.017,0.009 -0.017,0.009 -0.035,0.014l-0.097,0.017c-0.191,0.083 -0.182,0.109 -0.182,0.109l-0.202,0.079c-0.102,0.03 -0.102,0.03 -0.204,0.054l-0.181,0.086l-0.112,0.08l-0.212,0.024l-0.127,0.054l-0.152,0l-0.158,0.124l-0.191,0.149l-0.204,0.07l-0.176,0.103l-0.093,0.057c-0.182,0.125 -0.173,0.138 -0.173,0.138l-0.189,0.123l-0.097,0.052c-0.016,0.007 -0.016,0.007 -0.033,0.01l-0.107,0.015c-0.079,0.003 -0.071,-0.051 -0.17,0.005c-0.032,0.017 -0.197,0.125 -0.197,0.125l-0.254,0.045l-0.189,-0.003l-0.286,0.049c-0.194,0.156 -0.087,0.149 -0.194,0.152c-0.04,0.001 -0.075,-0.027 -0.108,-0.046l-0.203,0.027l-0.221,-0.061l-0.218,-0.027l-0.123,-0.04c-0.084,-0.047 -0.084,-0.047 -0.166,-0.097l-0.178,-0.019c-0.153,-0.025 -0.357,-0.046 -0.357,-0.046c-0.306,0.087 -0.151,0.078 -0.307,0.058l-0.205,0.078c0,0 -0.121,-0.012 -0.234,0.08c-0.076,0.062 -0.075,0.064 -0.135,0.142l-0.17,0.171l-0.215,0.113c0,0 -0.223,0.088 -0.311,0.208c-0.081,0.11 -0.099,0.184 -0.099,0.184l-0.111,0.177c-0.016,0.021 -0.016,0.021 -0.037,0.037l-0.176,0.121l-0.209,0.101l-0.22,0.078l-0.222,0.031l-0.16,0.061l-0.157,0.161c-0.023,0.01 -0.023,0.01 -0.047,0.014l-0.267,0.063l-0.15,0.128c-0.14,0.134 -0.114,0.161 -0.114,0.161l-0.086,0.089c-0.086,0.069 -0.086,0.069 -0.176,0.132l-0.143,0.139l-0.151,0.146c-0.019,0.014 -0.019,0.015 -0.041,0.024l-0.233,0.079c0,0 -0.182,-0.017 -0.359,0.087l-0.137,0.052l-0.201,0.009l-0.212,0.074l-0.062,0.087l0.006,0.096c-0.009,0.028 -0.009,0.028 -0.025,0.051l-0.16,0.158l-0.187,0.077c-0.102,0.119 -0.105,0.134 -0.105,0.134l-0.118,0.147l-0.121,0.179c0,0 -0.016,0.117 -0.107,0.144l-0.135,0.037l-0.037,0.058l0.029,0.202l0.009,0.204l0.015,0.097c0.001,0.024 0.001,0.024 -0.004,0.048l-0.054,0.22l-0.055,0.085c-0.117,0.198 -0.115,0.199 -0.115,0.199l-0.201,0.167l-0.139,0.07c-0.078,0.109 -0.16,0.354 -0.16,0.354l-0.187,0.206l0.006,0.197l-0.022,0.107c-0.006,0.019 -0.006,0.019 -0.015,0.037l-0.06,0.088c-0.127,0.216 -0.062,0.173 -0.121,0.211c-0.038,0.025 -0.089,0.015 -0.13,0.014c0,0 -0.121,0.109 -0.209,-0.001c0,0 -0.041,0.012 -0.106,0.121c0,0 0.022,0.062 -0.025,0.13l-0.1,0.172c-0.139,0.126 -0.091,0.105 -0.119,0.144l-0.159,0.148c-0.054,0.029 -0.129,0.044 -0.129,0.044l-0.136,0.165l-0.054,0.069c-0.022,0.02 -0.022,0.02 -0.049,0.033l-0.161,0.044l-0.265,0.182l-0.186,0.034c-0.137,-0.008 -0.15,-0.154 -0.15,-0.154l-0.026,-0.106c-0.003,-0.02 -0.003,-0.02 -0.001,-0.04l0.025,-0.187l-0.059,-0.15l-0.216,-0.171c0,0 -0.057,0.014 -0.129,-0.038l-0.134,-0.173c-0.124,-0.105 -0.296,-0.225 -0.296,-0.225l-0.263,-0.066l-0.231,-0.065l-0.196,-0.083l-0.114,-0.035c-0.077,-0.058 -0.031,-0.078 -0.145,-0.152c-0.118,-0.076 -0.29,-0.177 -0.29,-0.177l-0.158,-0.127l-0.201,-0.152l-0.079,-0.105c-0.232,-0.027 -0.099,0.048 -0.266,-0.04l-0.21,-0.046c-0.119,-0.054 -0.088,-0.104 -0.324,-0.078l-0.188,-0.041c0,0 -0.112,0.021 -0.161,-0.008c-0.067,-0.039 -0.107,-0.062 -0.16,-0.087l-0.175,-0.118l-0.159,-0.087l-0.134,-0.037c0,0 -0.095,-0.042 -0.115,-0.137l-0.002,-0.198c-0.02,-0.081 -0.02,-0.1 -0.18,-0.288l-0.048,-0.113c-0.147,-0.195 -0.101,-0.053 -0.171,-0.211l-0.149,-0.115l-0.065,-0.207l-0.037,-0.173l-0.056,-0.094c-0.035,-0.1 -0.035,-0.1 -0.064,-0.201l-0.053,-0.233l0.029,-0.344c-0.002,-0.049 0.01,-0.061 0.018,-0.076l0.11,-0.136l-0.099,-0.25c-0.015,-0.118 0.104,-0.273 0.104,-0.273l0.048,-0.14c-0.002,-0.06 0.003,-0.06 0.011,-0.119l0.019,-0.157c0.052,-0.24 0.048,-0.243 0.048,-0.243l-0.017,-0.121c0.008,-0.03 0.009,-0.03 0.026,-0.055l0.119,-0.18l-0.049,-0.195l0.031,-0.24l0.066,-0.16l-0.064,-0.139c-0.008,-0.029 -0.008,-0.029 -0.006,-0.058l0.053,-0.235c0,0 0.158,-0.314 0.151,-0.507l0.074,-0.287c0,0 -0.033,-0.046 -0.023,-0.125c0,0 0.039,-0.081 0.037,-0.171c-0.002,-0.08 -0.053,-0.195 -0.053,-0.195l0,-0.096c0.004,-0.025 0.004,-0.025 0.014,-0.049l0.101,-0.158c0.028,-0.227 0.01,-0.159 -0.091,-0.409l-0.041,-0.206l-0.135,-0.271c-0.002,-0.073 -0.021,-0.106 -0.021,-0.106l-0.144,-0.218c-0.013,-0.012 -0.013,-0.012 -0.024,-0.027l-0.106,-0.198c-0.039,-0.145 0.102,-0.323 0.102,-0.323l-0.16,-0.12c-0.028,-0.037 -0.041,-0.076 -0.015,-0.122l-0.076,-0.061c-0.02,-0.021 -0.02,-0.021 -0.033,-0.047l-0.069,-0.243l0.021,-0.088c-0.003,-0.155 -0.028,-0.179 -0.028,-0.179l-0.126,-0.204c-0.025,-0.11 0.129,-0.203 0.129,-0.203l0.01,-0.103c0.034,-0.069 0.025,-0.057 0.025,-0.057l-0.118,-0.045c0,0 -0.096,0.137 -0.266,-0.007l-0.188,-0.056c-0.025,-0.02 -0.025,-0.02 -0.043,-0.047c0,0 -0.062,-0.075 -0.043,-0.164c0,0 0.042,-0.058 -0.011,-0.229l-0.064,-0.14l-0.145,-0.228l0.063,-0.253c0.001,-0.052 0.005,-0.052 0.012,-0.104l-0.042,-0.181c-0.096,-0.233 -0.124,-0.049 -0.165,-0.233l-0.008,-0.097c0.012,-0.157 0.003,-0.149 0.003,-0.149l-0.063,-0.235l-0.008,-0.201l-0.059,-0.117c-0.01,-0.118 -0.037,-0.161 -0.037,-0.161l-0.076,-0.231l-0.164,-0.186l-0.049,-0.209c-0.082,-0.176 -0.09,-0.172 -0.09,-0.172l-0.193,-0.057c-0.115,-0.031 -0.111,-0.062 -0.221,-0.135l-0.135,-0.075l-0.09,0.017c-0.024,-0.003 -0.024,-0.003 -0.047,-0.013l-0.086,-0.049c-0.015,-0.01 -0.015,-0.01 -0.028,-0.023l-0.068,-0.082c-0.011,-0.017 -0.011,-0.017 -0.019,-0.036l-0.029,-0.101c-0.004,-0.03 -0.004,-0.03 0.001,-0.06l0.056,-0.217c0.108,-0.165 0.044,-0.122 0.044,-0.122l-0.107,-0.108l-0.091,-0.179l-0.107,-0.033c-0.02,-0.016 -0.02,-0.017 -0.036,-0.037l-0.119,-0.189c-0.006,-0.022 -0.006,-0.022 -0.007,-0.046l0.008,-0.1c-0.018,-0.195 -0.065,-0.215 -0.065,-0.215l-0.167,-0.176c0,0 -0.098,-0.106 -0.025,-0.204l0.129,-0.112c0.003,-0.162 -0.01,-0.164 -0.01,-0.164c0,0 0.009,-0.104 0.038,-0.141c0.123,-0.159 0.112,-0.242 0.061,-0.483l0.124,-0.213c0.049,-0.058 0.122,-0.053 0.13,-0.105c0.031,-0.182 0.182,-0.189 0.182,-0.189c0.126,-0.042 0.105,-0.06 0.105,-0.06l0.066,-0.074c0.019,-0.016 0.019,-0.016 0.041,-0.027l0.139,-0.06l0.198,-0.182l0.11,-0.171c0.039,-0.078 0.066,-0.079 0.066,-0.079l0.189,-0.181c0.11,-0.068 0.063,-0.06 0.097,-0.112c0.034,-0.053 0.112,-0.141 0.112,-0.141c0.012,-0.021 0.012,-0.021 0.028,-0.039l0.194,-0.138l0.201,-0.082l0.222,-0.027l0.22,-0.014c0.08,0.024 0.158,0.08 0.158,0.08c0.48,-0.136 0.241,-0.176 0.241,-0.176l-0.018,-0.098c-0.002,-0.024 -0.002,-0.024 0.003,-0.048l0.03,-0.098c0.014,-0.028 0.014,-0.028 0.035,-0.05l0.077,-0.059c0.11,-0.064 0.088,-0.09 0.088,-0.09l0.168,-0.19l0.017,-0.207c0.02,-0.031 0.056,-0.056 0.073,-0.068l0.074,-0.189c0.022,-0.024 0.022,-0.025 0.051,-0.04c0,0 0.136,-0.055 0.136,-0.055l-0.04,-0.121c0.002,-0.076 0.04,-0.125 0.04,-0.125l0.046,-0.135l0.078,-0.07c0.015,-0.011 0.015,-0.011 0.031,-0.019l0.106,-0.042c0.024,-0.254 0.11,-0.185 0.168,-0.189l0.188,-0.147l0.078,-0.164l0.163,-0.206l0.095,-0.038c0.175,-0.048 0.115,-0.069 0.172,-0.098l0.093,-0.034c0.094,-0.02 0.03,-0.009 0.096,-0.061l0.012,-0.159c0.02,-0.051 0.081,-0.101 0.081,-0.101l-0.042,-0.135l0.028,-0.212c0.026,-0.094 0.025,-0.094 0.058,-0.187l0.016,-0.122c0,0 -0.061,0.051 -0.164,-0.153c-0.079,-0.139 -0.097,-0.139 -0.043,-0.195l-0.19,-0.226l-0.042,-0.077c-0.094,-0.148 -0.131,-0.135 -0.131,-0.135l-0.174,-0.237l-0.175,-0.161l-0.116,-0.161c-0.055,-0.088 -0.055,-0.088 -0.103,-0.18l-0.089,-0.166c0,0 -0.085,-0.048 -0.098,-0.104c-0.007,-0.028 0.003,-0.08 0.005,-0.102l-0.115,-0.224l-0.075,-0.128l-0.009,-0.1c-0.011,-0.085 -0.011,-0.085 -0.024,-0.17c0,0 -0.049,-0.04 -0.057,-0.127l0.006,-0.092c-0.04,-0.206 -0.061,-0.202 -0.061,-0.202l-0.032,-0.191l-0.023,-0.204l-0.051,-0.266c-0.001,-0.047 0.002,-0.047 0.006,-0.094l-0.023,-0.086c-0.004,-0.026 -0.004,-0.026 0,-0.052l0.05,-0.275l-0.032,-0.092c0.001,-0.025 0.001,-0.025 0.007,-0.05l0.088,-0.268l0.066,-0.241l0.192,-0.339l0.151,-0.176l0.182,-0.113l0.242,-0.097l0.201,-0.02l0.285,0.018l0.319,0.014c0.073,0.031 0.073,0.07 0.09,0.112c0,0 0.114,0.003 0.161,0.016Zm-4.537,12.907c0.114,0.104 -0.007,0.286 -0.007,0.286c-0.014,0.039 -0.055,0.082 -0.065,0.094l-0.027,0.215l0.08,0.073c0,0 0.042,-0.026 0.118,-0.008l0.363,0.212c0,0 0.144,-0.081 0.226,-0.001l0.063,0.081c0.032,0.049 0.038,0.102 0.038,0.102l0.104,0.226c0,0 -0.069,0.077 0.147,0.263c0,0 0.146,0.073 0.086,0.232l0.092,0.159c0.012,0.119 0.029,0.16 0.029,0.16c0,0 0.168,0.121 0.03,0.23c0,0 -0.019,0.006 0.043,0.203c0,0 0.164,0.104 0.036,0.215l-0.008,0.063c0,0 0.04,-0.004 0.082,0.064l0.084,0.206l0.043,0.179c0.006,0.023 0.006,0.023 0.005,0.047l-0.003,0.205c-0.034,0.104 -0.12,0.101 0.017,0.239l0.093,0.134l0.051,0.199l0.012,0.117c-0.016,0.074 -0.023,0.089 -0.023,0.089l0.217,0.079l0.107,-0.068c0.054,-0.007 0.07,0.006 0.088,0.015l0.183,0.108c0.017,0.018 0.017,0.018 0.03,0.04c0,0 0.071,0.123 -0.003,0.233l-0.062,0.202c-0.069,0.097 0.012,-0.079 0.053,0.209l0.032,0.222c-0.013,0.117 0.005,0.165 0.005,0.165l0.173,0.173c0.031,0.054 -0.002,0.133 -0.002,0.133c0,0 0.067,0.022 0.101,0.057c0.033,0.032 0.07,0.141 0.07,0.141c0.001,0.027 0.001,0.027 -0.005,0.054l-0.111,0.236c0,0 -0.037,0.038 0.134,0.164l0.053,0.135c0.122,0.16 0.119,0.081 0.138,0.153c0.011,0.041 -0.009,0.077 -0.024,0.113c0,0 -0.006,0.004 0.113,0.213l0.018,0.134c0.018,0.059 0.04,0.117 0.063,0.174c0.017,0.045 0.04,0.105 0.04,0.105l0.033,0.231l-0.032,0.148l-0.091,0.187l0.033,0.094c0.013,0.064 0.018,0.064 0.02,0.129l-0.036,0.184l0.022,0.128l-0.038,0.212l-0.034,0.16c-0.02,0.111 -0.079,0.312 -0.079,0.312l-0.098,0.181l-0.027,0.146l0.081,0.169c0.004,0.047 -0.006,0.06 -0.013,0.076c0,0 -0.1,0.24 -0.1,0.245c-0.021,0.15 0.053,0.298 0.053,0.298l-0.012,0.091c-0.006,0.023 -0.006,0.023 -0.018,0.045l-0.11,0.138l0.002,0.177l-0.049,0.243l0.005,0.177c0.043,0.109 -0.054,0.183 -0.054,0.183l-0.108,0.209c0,0 0.132,0.033 0.118,0.142l-0.05,0.218c-0.078,0.112 -0.107,0.129 -0.107,0.129l-0.027,0.262c0,0 -0.023,0.059 0.038,0.251l0.027,0.097c0.1,0.277 0.07,0.041 0.135,0.39l0.039,0.136c0,0 0.106,0.057 0.138,0.098c0.292,0.372 0.194,0.255 0.223,0.334l0.055,0.065c0.145,0.199 0.134,0.205 0.134,0.205l0.052,0.298l0.198,0.074l0.246,0.157l0.108,0.023c0.087,0.067 0.116,0.054 0.116,0.054l0.12,-0.004c0.185,0.066 0.147,0.031 0.191,0.038l0.204,0.061c0.238,0.108 0.206,0.059 0.258,0.069c0.07,0.013 0.179,0.034 0.179,0.034c0,0 0.089,-0.002 0.138,0.021c0.075,0.036 0.152,0.172 0.152,0.172l0.153,0.106l0.169,0.135l0.379,0.241c0.096,0.127 0.13,0.099 0.13,0.099l0.189,0.08l0.17,0.049l0.128,0.011c0.048,0.022 0.046,0.025 0.09,0.054c0,0 0.069,-0.024 0.141,0.032l0.14,0.111l0.185,0.142c0.087,0.102 0.111,0.149 0.111,0.149l0.103,0.019c0.052,0.038 0.049,0.042 0.093,0.089l0.2,0.158l0.085,0.216c0.005,0.019 0.005,0.019 0.005,0.04l-0.026,0.202l0.039,0.081l0.111,-0.068c0.049,-0.035 0.104,-0.044 0.104,-0.044c0,0 0.026,-0.063 0.099,-0.086l0.146,-0.037l0.113,-0.125c0,0 0.08,-0.133 0.144,-0.165c0.08,-0.039 0.16,-0.004 0.222,-0.174l0.12,-0.155c0.025,-0.054 0.062,-0.081 0.062,-0.081l0.09,-0.289c0.064,-0.087 0.212,-0.069 0.212,-0.069c0.157,-0.034 0.142,0.013 0.222,0.015l0.125,-0.21l0.015,-0.077c-0.001,-0.283 -0.048,-0.17 0.012,-0.265l0.154,-0.151c0.069,-0.101 0.106,-0.247 0.106,-0.247l0.134,-0.215l0.198,-0.106c0.099,-0.072 0.133,-0.132 0.166,-0.193l0.099,-0.161l0.038,-0.172l-0.013,-0.196l-0.04,-0.293c0.001,-0.145 0.095,-0.221 0.095,-0.221c0.016,-0.016 0.016,-0.016 0.035,-0.028l0.084,-0.041c0.138,-0.043 0.066,-0.038 0.104,-0.089l0.113,-0.165l0.138,-0.175l0.144,-0.175c0.08,-0.045 0.092,0.005 0.184,-0.068c0.022,-0.016 0.074,-0.073 0.096,-0.096c0,0 -0.031,-0.053 0.012,-0.13l0.127,-0.172c0.057,-0.035 0.117,-0.03 0.18,-0.036c0,0 0.03,-0.069 0.131,-0.071c0,0 0.125,0.049 0.35,-0.084l0.147,-0.051c0.099,-0.007 0.099,-0.008 0.199,-0.009l0.173,-0.063l0.131,-0.125l0.08,-0.1c0.089,-0.063 0.089,-0.063 0.178,-0.125l0.074,-0.059c0.142,-0.151 0.121,-0.175 0.121,-0.175l0.169,-0.14l0.111,-0.097l0.296,-0.074l0.152,-0.151l0.238,-0.087l0.488,-0.132c0.179,-0.107 0.17,-0.122 0.17,-0.122l0.114,-0.111l0.102,-0.185l0.16,-0.206l0.094,-0.062c0.168,-0.094 0.209,-0.106 0.209,-0.106l0.163,-0.085c0.116,-0.099 0.218,-0.238 0.218,-0.238c0.195,-0.165 0.202,-0.157 0.202,-0.157l0.218,-0.04l0.197,-0.076c0.213,-0.036 0.191,-0.029 0.385,-0.077c0,0 0.23,0.061 0.331,0.064c0.078,0.002 0.14,-0.004 0.14,-0.004l0.199,0.097c0.106,0.06 0.395,0.1 0.395,0.1l0.162,0.049l0.24,-0.026c0.079,0.031 0.063,-0.008 0.063,-0.008l0.084,-0.067c0.018,-0.012 0.018,-0.012 0.038,-0.02l0.222,-0.038l0.238,-0.03l0.184,0.007c0.086,-0.029 0.086,-0.031 0.161,-0.08l0.202,-0.11c0.106,-0.027 0.222,0.009 0.222,0.009c0.084,-0.045 0.084,-0.046 0.163,-0.1l0.172,-0.132c0.093,-0.064 0.092,-0.064 0.189,-0.122l0.215,-0.123c0,0 0.097,-0.012 0.184,-0.062c0.018,-0.011 0.171,-0.137 0.171,-0.137l0.137,-0.114c0.033,-0.03 0.048,-0.031 0.063,-0.034l0.201,-0.009l0.12,-0.052l0.167,-0.014l0.187,-0.109l0.219,-0.083l0.2,-0.079l0.178,-0.093l0.207,-0.065l0.183,-0.081l0.18,-0.09l0.187,-0.096l0.15,-0.085l0.141,-0.172l0.136,-0.144l0.172,-0.126l0.17,-0.134l0.161,-0.127c0.105,-0.118 0.115,-0.233 0.159,-0.268c0.034,-0.027 0.081,-0.024 0.122,-0.027l0.149,-0.097l0.185,-0.157c0.098,-0.038 0.098,-0.038 0.197,-0.072l0.247,-0.13l0.083,-0.145c0.026,-0.035 0.131,-0.068 0.131,-0.068c0.17,-0.16 0.009,-0.106 0.229,-0.181l0.133,-0.095l0.163,-0.139l0.164,-0.132c0.137,-0.153 0.059,-0.134 0.112,-0.173c0.045,-0.033 0.158,-0.066 0.158,-0.066l0.129,-0.18c0,0 0.118,-0.004 0.206,-0.218l0.03,-0.197c-0.001,-0.052 0.006,-0.063 0.006,-0.063c0,0 -0.056,-0.176 0.038,-0.226c0.03,-0.016 0.095,-0.034 0.095,-0.034l0.023,-0.168c0.018,-0.06 0.081,-0.099 0.081,-0.099l-0.153,-0.173c-0.009,-0.005 -0.143,-0.086 -0.16,-0.092c-0.11,-0.042 -0.213,-0.024 -0.213,-0.024l-0.173,-0.127l-0.161,-0.085c-0.123,-0.094 -0.076,-0.034 -0.148,-0.046l-0.204,-0.047l-0.25,-0.152l-0.237,-0.085c0,0 -0.154,-0.127 -0.223,-0.158c-0.29,-0.134 -0.197,-0.086 -0.219,-0.105l-0.178,-0.2c0,0 -0.057,0.006 -0.122,-0.039l-0.144,-0.169c-0.104,-0.123 -0.298,-0.211 -0.298,-0.211l-0.127,-0.08l-0.103,-0.197c-0.006,-0.027 -0.006,-0.027 -0.005,-0.054l0.05,-0.205l-0.088,-0.022c0,0 -0.098,0.067 -0.179,0.008l-0.066,-0.066c-0.16,-0.105 -0.175,-0.081 -0.175,-0.081l-0.201,-0.15l-0.074,-0.129l-0.001,-0.222c0.039,-0.147 -0.014,-0.149 -0.014,-0.149l-0.021,-0.094c-0.003,-0.017 -0.003,-0.017 -0.002,-0.035l0.004,-0.205l0.073,-0.271c0,0 0.03,-0.059 -0.049,-0.232l-0.049,-0.199l-0.108,-0.187c0,0 -0.05,-0.174 -0.101,-0.253c-0.021,-0.033 -0.166,-0.21 -0.166,-0.21l-0.179,-0.022l-0.073,0.059c-0.181,0.042 -0.174,0.004 -0.174,0.004l-0.233,-0.123l-0.105,0.017l-0.137,0.129c-0.064,0.035 -0.157,0.021 -0.157,0.021l-0.078,0.079c-0.024,0.011 -0.024,0.011 -0.051,0.016c0,0 -0.162,-0.019 -0.183,-0.028c0,0 0.005,0.048 -0.073,0.09l-0.095,0.036c-0.018,0.004 -0.018,0.004 -0.036,0.006l-0.105,0c-0.019,-0.002 -0.019,-0.002 -0.038,-0.007l-0.095,-0.038c-0.027,-0.017 -0.027,-0.017 -0.048,-0.041l-0.114,-0.229l-0.021,-0.398l0.016,-0.24l0.006,-0.134c-0.002,-0.026 -0.002,-0.026 0.001,-0.052l0.058,-0.251l-0.061,-0.172c-0.002,-0.017 -0.002,-0.017 -0.002,-0.034c0,0 0.051,-0.18 0.067,-0.202l-0.123,-0.141c-0.021,-0.062 0.034,-0.136 0.034,-0.136c0.001,-0.026 0.001,-0.026 0.008,-0.05c0,0 0.1,-0.248 0.128,-0.355c0.049,-0.186 -0.032,-0.25 0.048,-0.36l-0.137,-0.202l-0.029,-0.092l-0.149,-0.081c-0.21,-0.101 -0.2,-0.11 -0.2,-0.11c0,0 -0.076,-0.088 -0.089,-0.154l-0.147,-0.071c-0.066,-0.053 -0.052,-0.104 -0.055,-0.155l-0.093,-0.218l-0.189,-0.165c-0.016,-0.012 -0.016,-0.012 -0.028,-0.027c0,0 -0.089,-0.159 -0.258,-0.261l-0.218,-0.192c-0.078,-0.06 -0.138,-0.136 -0.138,-0.136l-0.327,-0.274c0,0 -0.029,-0.081 -0.313,-0.169c0,0 -0.09,0.003 -0.145,-0.082l-0.104,-0.158l-0.209,-0.197l-0.268,-0.127l-0.086,-0.054c-0.195,-0.107 -0.205,-0.095 -0.205,-0.095l-0.072,-0.066c-0.035,-0.044 -0.031,-0.062 -0.032,-0.081c0,0 -0.071,0.02 -0.123,-0.025l-0.188,-0.181l-0.182,-0.122l-0.159,-0.115l-0.088,-0.056c-0.085,-0.042 -0.086,-0.041 -0.18,-0.059l-0.239,-0.062l-0.187,-0.087l-0.2,-0.092l-0.199,-0.061l-0.229,-0.114l-0.163,-0.094l-0.198,-0.133l-0.138,-0.024l-0.222,-0.107l-0.126,-0.058c-0.116,-0.031 -0.199,-0.128 -0.199,-0.128c-0.195,-0.072 -0.204,-0.048 -0.204,-0.048l-0.221,-0.125l-0.127,-0.114l-0.203,-0.082l-0.16,-0.078l-0.294,-0.123l-0.242,-0.119l-0.124,-0.023c-0.095,-0.041 -0.095,-0.041 -0.186,-0.09l-0.227,-0.041l-0.254,-0.1l-0.212,-0.055l-0.143,-0.079l-0.215,0.001c-0.018,0.004 -0.017,0.004 -0.036,0.005c0,0 -0.082,0.007 -0.13,-0.011c-0.063,-0.024 -0.172,-0.11 -0.172,-0.11l-0.243,-0.053c-0.026,-0.001 -0.026,-0.001 -0.051,-0.007l-0.183,-0.082l-0.166,-0.089l-0.152,-0.008c-0.147,0.018 -0.359,0.136 -0.359,0.136l-0.258,0.053l-0.244,-0.071l-0.158,-0.168l-0.116,-0.129l-0.201,-0.073c0,0 -0.114,-0.124 -0.318,-0.093l-0.155,-0.067c-0.063,-0.05 -0.094,-0.209 -0.094,-0.209l-0.179,-0.178l-0.187,-0.091l-0.379,-0.178l-0.26,-0.107l-0.191,-0.107l-0.166,-0.095l-0.195,-0.098l-0.195,-0.092l-0.162,-0.074c-0.1,-0.044 -0.087,-0.171 -0.087,-0.171l-0.044,-0.103c-0.005,-0.091 0.028,-0.134 0.028,-0.134l-0.253,-0.157c-0.206,-0.07 -0.119,-0.01 -0.185,-0.07c-0.082,-0.073 0.011,-0.149 -0.161,-0.159l-0.167,-0.099c-0.047,-0.016 -0.057,-0.031 -0.057,-0.031c0,0 -0.048,0.038 -0.121,0.019l-0.2,-0.09c-0.089,-0.034 -0.089,-0.033 -0.183,-0.05l-0.224,-0.122c-0.099,-0.052 -0.147,-0.061 -0.147,-0.061l-0.174,-0.058l-0.131,-0.001l-0.173,-0.117c-0.068,-0.002 -0.114,-0.033 -0.114,-0.033l-0.2,0.019c-0.041,-0.014 -0.04,-0.016 -0.079,-0.034l-0.192,0.029l-0.178,0.025l-0.167,0.1c-0.125,0.081 -0.131,0.126 -0.131,0.126l-0.122,0.231c-0.068,0.115 -0.125,0.167 -0.125,0.167l-0.063,0.258l-0.051,0.17l0.011,0.209l-0.036,0.193l0.053,0.262l0.025,0.288l0.038,0.197l0.047,0.195l0.017,0.202l0.065,0.194c0.011,0.088 0.012,0.088 0.02,0.175l0.136,0.245l0.091,0.216c0.017,0.016 0.017,0.016 0.03,0.036l0.092,0.176l0.048,0.089c0.11,0.175 0.126,0.165 0.126,0.165l0.084,0.142l0.178,0.154l0.049,0.081c0.135,0.166 0.157,0.151 0.157,0.151l0.153,0.204c0.015,0.015 0.015,0.015 0.026,0.032l0.123,0.159l0.112,0.249c0.219,0.094 0.106,0.277 0.106,0.277l-0.052,0.184c-0.025,0.087 -0.025,0.088 -0.033,0.178l0.024,0.174c0,0 0.086,0.146 -0.095,0.232c0,0 0.054,0.124 -0.056,0.212c0,0 -0.001,0.09 -0.059,0.119c-0.067,0.034 -0.176,0.01 -0.176,0.01l-0.07,0.078c-0.021,0.011 -0.021,0.011 -0.044,0.018l-0.148,0.037l-0.203,0.343l-0.085,0.056c-0.19,0.14 -0.053,0.132 -0.206,0.141c0,0 0.028,0.116 -0.032,0.165c-0.067,0.053 -0.186,0.048 -0.186,0.048l-0.049,0.089c-0.027,0.09 -0.017,0.104 -0.017,0.104c0,0 0.162,0.121 0.047,0.212l-0.285,0.151c0,0 0.009,0.088 -0.022,0.129c-0.024,0.033 -0.077,0.086 -0.077,0.086l0.003,0.132l-0.185,0.227c0,0 -0.022,0.089 -0.06,0.12c-0.04,0.032 -0.136,0.077 -0.136,0.077l0.037,0.222c0,0 0.019,0.124 -0.038,0.17c-0.034,0.027 -0.081,0.023 -0.121,0.027l-0.184,0.082l-0.143,0.03l-0.253,-0.071c-0.101,0.003 -0.101,0.003 -0.201,0.005l-0.256,0.092c-0.195,0.126 -0.148,0.158 -0.17,0.186c-0.052,0.069 -0.055,0.129 -0.141,0.186l-0.193,0.119l-0.069,0.141c-0.011,0.056 -0.059,0.091 -0.111,0.103l-0.195,0.183l-0.072,0.101l-0.171,0.079c-0.117,0.133 -0.054,0.11 -0.112,0.14c-0.049,0.026 -0.155,0.068 -0.155,0.068c0,0 0.04,0.087 -0.009,0.136c-0.059,0.06 -0.184,0.063 -0.184,0.063l-0.071,0.095l0.01,0.176c-0.004,0.149 -0.026,0.326 -0.026,0.326c-0.036,0.068 -0.091,0.131 -0.091,0.131l0.004,0.227c-0.015,0.028 -0.015,0.028 -0.038,0.05l-0.087,0.08c0.152,0.176 0.139,0.139 0.139,0.139l0.092,0.127l0.022,0.305l0.078,0.121l0.176,0.098c0.106,0.111 0.107,0.213 0.107,0.213c0,0 0.07,-0.01 0.117,0.01Z"/><text x="0" y="138" fill="#000000" font-size="5px" font-weight="bold" font-family="'Helvetica Neue', Helvetica, Arial-Unicode, Arial, Sans-serif">Created by clckw</text><text x="0" y="143" fill="#000000" font-size="5px" font-weight="bold" font-family="'Helvetica Neue', Helvetica, Arial-Unicode, Arial, Sans-serif">from the Noun Project</text></svg>